<svg width="1265" height="1265" viewBox="0 0 1265 1265" fill="none" xmlns="http://www.w3.org/2000/svg">
<path d="M1079.84 882.533C1080.1 886.294 1078.21 889.88 1074.97 891.806L921.442 983.096L948.784 907.38C950.496 902.638 952.659 898.072 955.241 893.742L994.941 827.184C998.696 820.89 1003.31 815.15 1008.64 810.127L1070.94 751.5L1079.84 882.533Z" fill="#F0FEFF"/>
<path d="M1080.26 520.871C1080.26 521.782 1080.13 522.69 1079.89 523.567L1071.02 555.24C1070.43 557.325 1070.54 559.543 1071.33 561.56L1074.87 570.669L1036.66 594.707C1029.06 599.483 1022.12 605.221 1016 611.778L931.259 702.574C926.326 707.859 921.958 713.645 918.226 719.836L864.459 809.008L804.58 949.655C802.998 953.371 802.183 957.368 802.183 961.407V986.685C802.183 991.74 800.905 996.713 798.469 1001.14L750.529 1088.3L633.007 1142.87C630.133 1144.2 626.8 1144.09 624.02 1142.58C624 1142.27 623.982 1141.95 623.968 1141.63L619.878 1049.19C619.773 1046.81 621.385 1044.7 623.707 1044.17C641.433 1040.14 656.612 1028.77 665.457 1012.89L715.284 923.424L790.268 784.775C791.45 782.588 792.792 780.491 794.28 778.5L903.563 632.315L967.289 545.417L1032.46 433.897L1042.82 411.46C1047.36 401.62 1055.17 393.658 1064.92 388.929C1069.99 386.474 1075.15 385.015 1080.26 384.435V520.871ZM1070.56 732.775L981.244 825.279C977.751 828.897 974.77 832.979 972.386 837.407L925.289 924.872L898.825 996.542L865.908 1016.11L791.348 1069.17C790.848 1069.52 790.317 1069.83 789.761 1070.09L779.618 1074.8L814.779 1008.66C820.773 997.39 823.907 984.817 823.907 972.049V952.589C823.907 940.037 826.476 927.618 831.454 916.096L871.401 823.648C873.529 818.724 876.062 813.985 878.973 809.48L930.733 729.374C933.856 724.541 937.403 719.995 941.331 715.791L1015.12 636.824C1017.02 634.792 1019.17 633.008 1021.51 631.514L1079.6 594.55L1070.56 732.775ZM1014.5 418.969C1015.28 418.584 1016.15 419.306 1015.91 420.14L1008.72 445.302C1008.14 447.345 1007.28 449.303 1006.18 451.122L928.186 580.177L855.77 672.868L774.665 784.387L725.423 875.63L652.282 993.78C650.856 996.085 648.898 998.015 646.574 999.41L622.611 1013.79C621.956 1014.18 621.119 1013.72 621.098 1012.96L616.82 858.992C616.808 858.552 617.086 858.155 617.504 858.015L631.951 853.2C633.384 852.722 634.584 851.722 635.312 850.399L649.529 824.549C649.913 823.851 650.432 823.236 651.056 822.741L697.186 786.108C698.598 784.986 699.641 783.466 700.179 781.745L713.601 738.797C713.757 738.295 713.97 737.811 714.235 737.357L774.406 634.208C774.579 633.912 774.773 633.629 774.986 633.362L871.615 512.575C872.608 511.334 873.149 509.791 873.149 508.202V489.554C873.149 489.174 873.365 488.827 873.706 488.658L1014.5 418.969ZM831.864 520.828C833.71 520 835.478 522.122 834.33 523.788L751.492 643.902L676.91 777.588C675.473 780.163 673.532 782.423 671.204 784.234L635.628 811.905L616.801 827.836V773.783C616.801 763.546 615.073 753.382 611.691 743.72L606.998 730.309C606.814 729.783 607.096 729.208 607.625 729.031L627.252 722.488C627.951 722.255 628.465 721.656 628.59 720.93L635.206 682.56C635.483 680.957 636.188 679.458 637.249 678.223L714.084 588.815C714.882 587.886 715.578 586.874 716.159 585.796L724.939 569.487C725.253 568.905 725.751 568.443 726.354 568.173L831.864 520.828ZM689.432 582.362C690.335 582.114 691.053 583.133 690.515 583.9L634.649 663.51C634.337 663.955 634.058 664.423 633.814 664.909L622.69 687.156C622.242 688.052 620.902 687.805 620.802 686.808L614.045 619.247C613.955 618.352 614.273 617.463 614.909 616.827L633.619 598.117C633.987 597.749 634.444 597.483 634.945 597.345L689.432 582.362Z" fill="#F0FEFF"/>
<path d="M602.903 1050.03C604.108 1049.72 605.306 1050.57 605.405 1051.81L612.139 1135.98L516.674 1082.87L546.119 1066.21C548.815 1064.68 551.696 1063.51 554.691 1062.72L602.903 1050.03ZM599.977 864.557C601.195 864.289 602.359 865.192 602.404 866.439L608.006 1021.88C608.068 1023.62 606.995 1025.2 605.354 1025.79L588.205 1031.91C587.959 1032 587.705 1032.07 587.446 1032.1L554.245 1037.02C550.607 1037.56 547.117 1038.84 543.99 1040.77L495.24 1070.95L399.173 1017.51C397.53 1016.6 396.178 1015.24 395.271 1013.59L386.759 998.118L410.457 957.494C411.87 955.071 413.653 952.884 415.74 951.01L479.634 893.636C482.206 891.327 485.332 889.723 488.708 888.982L599.977 864.557ZM593.829 733.696C595.362 733.697 596.648 734.852 596.812 736.376L604.559 808.679C604.987 812.676 604.259 816.712 602.461 820.308L592.113 841.003C591.266 842.697 589.534 843.767 587.641 843.767H567.35C564.616 843.767 561.906 844.277 559.359 845.27L485.262 874.155C480.298 876.091 475.69 878.839 471.629 882.287L406.866 937.275C403.016 940.543 400.023 944.703 398.147 949.392L392.313 963.976L376.207 985.986L331.54 974.501C330.544 974.245 329.593 973.836 328.721 973.29L230.401 911.676L281.947 843.585C286.906 837.034 293.295 831.701 300.626 827.992L402.999 776.203C409.369 772.981 416.108 770.546 423.066 768.951L551.627 739.489L571.903 733.696H593.829ZM523.673 559.7C523.892 559.074 524.65 558.831 525.192 559.213L598.604 610.873C600.964 612.534 602.492 615.134 602.794 618.004L610.526 691.469C610.824 694.299 609.597 697.075 607.302 698.758L595.617 707.327C591.435 710.394 586.696 712.618 581.664 713.876L456.039 745.282L355.849 782.194C349.284 784.613 343.02 787.781 337.181 791.635L284.755 826.235C277.319 831.143 270.558 837.004 264.646 843.668L211.33 903.752L197.719 900.659C192.993 899.585 189.718 895.277 189.946 890.436L198.097 717.892L287.802 638.741C293.663 633.57 300.699 629.907 308.297 628.073L422.729 600.452L510.361 587.933C512.579 587.616 514.437 586.09 515.177 583.976L523.673 559.7ZM345.968 475.378C345.968 472.346 349.211 470.416 351.876 471.861L472.772 537.455C478.895 540.777 484.071 545.604 487.811 551.481L491.668 557.542C491.98 558.033 491.809 558.685 491.297 558.96L456.027 577.855C453.154 579.394 450.073 580.512 446.881 581.175L306.13 610.388C300.867 611.48 295.836 613.486 291.266 616.316L271.608 628.484C269.051 630.067 266.685 631.941 264.559 634.068L198.24 700.386V566.684C198.24 566.025 198.176 565.368 198.047 564.723L197.352 561.247L273.301 508.609C278.244 505.183 283.838 502.808 289.735 501.628L341.145 491.346C343.949 490.785 345.968 488.322 345.968 485.462V475.378ZM319.768 455.344C321.639 456.411 322.795 458.401 322.795 460.556V470.189C322.795 472.74 321.181 475.013 318.771 475.854L265.819 494.325C262.302 495.552 258.968 497.253 255.91 499.38L193.641 542.696L189.703 523.007C189.602 522.499 189.539 521.984 189.518 521.467L184.009 390.614C183.854 386.943 185.725 383.483 188.882 381.603L189.664 381.137L319.768 455.344Z" fill="#F0FEFF"/>
<path d="M542.938 242.885C542.938 245.667 543.19 248.443 543.691 251.18L556.776 322.552C558.162 330.108 560.782 337.386 564.531 344.092L634.181 468.656L702.095 560.624C702.893 561.705 702.419 563.249 701.153 563.697L640.326 585.241C636.333 586.656 631.993 586.765 627.933 585.554L551.627 562.796L527.282 549.036C521.358 545.688 516.12 541.25 511.845 535.956L487.901 506.313L444.796 430.244C440.739 423.086 438.037 415.24 436.822 407.103L425.078 328.423C424.478 324.402 424.246 320.333 424.383 316.27L426.461 254.754L427.456 254.217C429.099 253.33 430.46 252.001 431.387 250.38L440.271 234.832C441.114 233.357 442.318 232.122 443.771 231.241L535.803 175.464C536.691 174.925 537.659 174.529 538.67 174.288L542.938 173.272V242.885ZM624.416 123.113C626.943 121.809 629.905 121.643 632.562 122.655L685.87 142.962C688.033 143.786 689.844 145.336 690.992 147.346L703.699 169.583V223.894L711.606 270.018C712.126 273.049 713.043 275.999 714.333 278.79L780.591 422.122C782.414 426.066 785.046 429.583 788.315 432.444L827.68 466.888C829.013 468.055 830.095 469.482 830.856 471.082L843.709 498.071C843.964 498.606 843.7 499.244 843.143 499.443L786.652 519.618C784.488 520.391 782.548 521.686 781.002 523.386L771.703 533.613C769.839 535.664 767.548 537.283 764.992 538.355L726.044 554.688C724.817 555.202 723.399 554.847 722.559 553.815L660.805 478.026C660.436 477.574 660.107 477.09 659.823 476.58L579.603 332.736C577.381 328.753 575.807 324.441 574.94 319.963L567.559 281.825L558.026 254.419C556.667 250.511 555.973 246.402 555.973 242.264V170.168L563.814 168.302C566.224 167.728 568.335 166.28 569.738 164.238L582.067 146.307C583.001 144.948 584.256 143.841 585.721 143.085L624.416 123.113ZM409.693 294.86L427.181 418.617C428.065 424.877 430.203 430.895 433.468 436.31L486.149 523.683C486.664 524.536 485.749 525.535 484.854 525.097L353.442 460.79C352.413 460.287 351.761 459.24 351.761 458.095V439.47C351.761 437.798 350.925 436.237 349.534 435.31L340.538 429.312C339.383 428.541 338.599 427.326 338.376 425.955L329.704 372.681C328.968 368.158 329.153 363.534 330.249 359.085L345.902 295.548L356.611 292.254C357.238 292.061 357.846 291.807 358.423 291.495L409.693 263.809V294.86ZM738.491 182.972C739.43 183.217 740.327 183.597 741.156 184.101L820.27 232.133C820.763 232.433 821.23 232.775 821.665 233.155L842.329 251.237C843.547 252.303 845.007 253.057 846.581 253.435L879.423 261.317C880.067 261.472 880.695 261.69 881.296 261.969L944.703 291.375L950.976 314.251C952.188 318.672 954.133 322.859 956.73 326.637L984.67 367.275L1012.19 403.047C1012.94 404.031 1012.63 405.46 1011.53 406.037L928.187 449.829L863.115 483.779C862.227 484.243 861.133 483.977 860.556 483.159L844.362 460.219C844.244 460.052 844.101 459.904 843.938 459.78L813.02 436.281C809.703 433.761 807.015 430.507 805.165 426.774L728.692 272.464C727.484 270.025 726.581 267.445 726.006 264.784L716.076 218.859C715.551 216.429 715.286 213.949 715.286 211.463V176.919L738.491 182.972ZM316.316 357.93C314.857 363.143 314.445 368.594 315.103 373.968L322.559 434.86C322.657 435.668 321.8 436.25 321.086 435.859L204.687 372.187L318.868 304.164C319.553 303.756 320.283 303.432 321.045 303.197L332.64 299.629L316.316 357.93ZM1074.46 351.555C1078 353.193 1080.26 356.732 1080.26 360.626V371.246L1054.23 388.042C1053.26 388.668 1052.13 389 1050.97 389H1029.29C1026.7 389 1024.24 387.887 1022.53 385.945L993.359 352.792L964.706 317.626C962.597 315.038 961.135 311.985 960.442 308.719L958.079 297.578L1074.46 351.555Z" fill="#F0FEFF"/>
</svg>
