<svg width="159" height="242" viewBox="0 0 159 242" fill="none" xmlns="http://www.w3.org/2000/svg">
<path d="M158.684 210.311C158.684 214.726 157.105 218.457 153.947 221.505C150.895 224.553 147.211 226.077 142.895 226.077H158.684V242H95.2106C90.7896 242 87.0527 240.423 84.0001 237.27C80.9475 234.222 79.4212 230.491 79.4212 226.077H15.9475C11.5264 226.077 7.73695 224.553 4.57905 221.505C1.52642 218.457 0.000105858 214.726 0.000105858 210.311V15.7655C0.000105858 11.4562 1.52642 7.77763 4.57905 4.72964C7.73695 1.57655 11.5264 0 15.9475 0H142.895C147.211 0 150.895 1.57655 153.947 4.72964C157.105 7.77763 158.684 11.4562 158.684 15.7655V210.311ZM156.737 176L156.737 37.6935C156.737 33.2792 155.158 29.548 152 26.5C148.947 23.3469 145.211 21.7704 140.79 21.7704H17.5001C13.0791 21.7704 9.34221 23.3469 6.28958 26.5C3.23695 29.548 1.71063 33.2792 1.71063 37.6935L1.71053 176C1.71053 180.414 3.23684 184.198 6.28947 187.351C9.34211 190.399 13.0789 191.923 17.5 191.923H140.789C145.211 191.923 148.947 190.399 152 187.351C155.158 184.198 156.737 180.414 156.737 176Z" fill="white"/>
</svg>
