<svg width="641" height="181" viewBox="0 0 641 181" fill="none" xmlns="http://www.w3.org/2000/svg" xmlns:xlink="http://www.w3.org/1999/xlink">
<mask id="path-1-outside-1_94_680" maskUnits="userSpaceOnUse" x="-1" y="0" width="642" height="183" fill="black">
<rect fill="white" x="-1" width="642" height="183"/>
<path d="M553.403 3.21361H639.026V23.0476H579.613V57.7571H632.297V76.7056H579.613V114.071H640V133.905H553.403V3.21361Z"/>
<path d="M449.204 133.905V3.21361H505.607C517.177 3.21361 526.12 4.83693 532.436 8.08356C538.752 11.3302 543.12 15.8755 545.541 21.7194C548.02 27.5634 549.26 34.4108 549.26 42.2618C549.26 47.6335 548.758 52.6805 547.754 57.4029C546.81 62.0662 544.95 66.1983 542.176 69.7991C539.402 73.3999 535.358 76.2924 530.045 78.4765L555.281 133.905H528.009L505.076 82.2839H475.502V133.905H449.204ZM475.502 63.5125H507.821C512.307 63.5125 515.701 62.627 518.003 60.8561C520.364 59.0262 521.958 56.606 522.785 53.5955C523.67 50.5259 524.113 47.1317 524.113 43.4128C524.113 39.8711 523.729 36.4473 522.962 33.1417C522.253 29.836 520.807 27.1502 518.623 25.0841C516.498 22.959 513.251 21.8965 508.883 21.8965H475.502V63.5125Z"/>
<path d="M389.454 136.208C377.707 136.208 368.056 134.997 360.5 132.577C352.944 130.157 347.071 126.822 342.88 122.572C338.689 118.322 335.737 113.363 334.025 107.696C332.373 102.029 331.546 95.9788 331.546 89.5445V48.637C331.546 42.0256 332.373 35.857 334.025 30.1312C335.678 24.3462 338.6 19.2697 342.791 14.9015C346.982 10.5333 352.856 7.13909 360.412 4.71887C367.968 2.23962 377.648 1 389.454 1C400.729 1 409.997 2.29865 417.257 4.89596C424.577 7.49327 430.273 11.0646 434.346 15.6098C438.479 20.0961 441.341 25.2907 442.935 31.1937C444.588 37.0967 445.414 43.3538 445.414 49.9651V88.1278C445.414 94.5621 444.588 100.672 442.935 106.457C441.282 112.182 438.39 117.289 434.258 121.775C430.185 126.261 424.518 129.803 417.257 132.4C409.997 134.938 400.729 136.208 389.454 136.208ZM389.454 115.577C396.066 115.577 401.555 114.898 405.924 113.54C410.292 112.182 413.568 109.821 415.752 106.457C417.936 103.092 419.028 98.4285 419.028 92.4665V45.0952C419.028 39.2512 417.936 34.6174 415.752 31.1937C413.568 27.77 410.262 25.3202 405.835 23.8445C401.467 22.3687 396.007 21.6309 389.454 21.6309C382.961 21.6309 377.353 22.3392 372.631 23.7559C367.909 25.1727 364.278 27.5929 361.74 31.0166C359.202 34.4403 357.932 39.1332 357.932 45.0952V92.4665C357.932 98.4285 359.172 103.092 361.651 106.457C364.19 109.821 367.82 112.182 372.542 113.54C377.265 114.898 382.902 115.577 389.454 115.577Z"/>
<path d="M291.807 181.188L263.296 135.765C250.782 134.702 241.13 132.016 234.342 127.707C227.613 123.398 222.949 117.938 220.352 111.327C217.814 104.656 216.545 97.3955 216.545 89.5445V48.637C216.545 42.0256 217.371 35.857 219.024 30.1312C220.677 24.3462 223.599 19.2697 227.79 14.9015C231.981 10.5333 237.854 7.13909 245.41 4.71887C252.966 2.23962 262.647 1 274.453 1C285.727 1 294.995 2.29865 302.256 4.89596C309.575 7.49327 315.272 11.0646 319.345 15.6098C323.477 20.0961 326.34 25.2907 327.934 31.1937C329.586 37.0967 330.413 43.3538 330.413 49.9651V88.1278C330.413 95.8017 329.173 103.003 326.694 109.733C324.274 116.462 319.906 122.129 313.589 126.733C307.332 131.338 298.419 134.289 286.849 135.588L309.251 170.917L291.807 181.188ZM274.453 115.577C281.064 115.577 286.554 114.898 290.922 113.54C295.29 112.182 298.566 109.821 300.75 106.457C302.935 103.092 304.027 98.4285 304.027 92.4665V45.0952C304.027 39.2512 302.935 34.6174 300.75 31.1937C298.566 27.77 295.261 25.3202 290.833 23.8445C286.465 22.3687 281.005 21.6309 274.453 21.6309C267.959 21.6309 262.352 22.3392 257.629 23.7559C252.907 25.1727 249.277 27.5929 246.738 31.0166C244.2 34.4403 242.931 39.1332 242.931 45.0952V92.4665C242.931 98.4285 244.17 103.092 246.65 106.457C249.188 109.821 252.818 112.182 257.541 113.54C262.263 114.898 267.9 115.577 274.453 115.577Z"/>
<path d="M159.451 136.208C147.704 136.208 138.053 134.997 130.497 132.577C122.941 130.157 117.068 126.822 112.877 122.572C108.685 118.322 105.734 113.363 104.022 107.696C102.369 102.029 101.543 95.9788 101.543 89.5445V48.637C101.543 42.0256 102.369 35.857 104.022 30.1312C105.675 24.3462 108.597 19.2697 112.788 14.9015C116.979 10.5333 122.853 7.13909 130.408 4.71887C137.964 2.23962 147.645 1 159.451 1C170.726 1 179.993 2.29865 187.254 4.89596C194.574 7.49327 200.27 11.0646 204.343 15.6098C208.475 20.0961 211.338 25.2907 212.932 31.1937C214.585 37.0967 215.411 43.3538 215.411 49.9651V88.1278C215.411 94.5621 214.585 100.672 212.932 106.457C211.279 112.182 208.387 117.289 204.255 121.775C200.182 126.261 194.515 129.803 187.254 132.4C179.993 134.938 170.726 136.208 159.451 136.208ZM159.451 115.577C166.062 115.577 171.552 114.898 175.92 113.54C180.289 112.182 183.565 109.821 185.749 106.457C187.933 103.092 189.025 98.4285 189.025 92.4665V45.0952C189.025 39.2512 187.933 34.6174 185.749 31.1937C183.565 27.77 180.259 25.3202 175.832 23.8445C171.464 22.3687 166.003 21.6309 159.451 21.6309C152.958 21.6309 147.35 22.3392 142.628 23.7559C137.905 25.1727 134.275 27.5929 131.737 31.0166C129.198 34.4403 127.929 39.1332 127.929 45.0952V92.4665C127.929 98.4285 129.169 103.092 131.648 106.457C134.186 109.821 137.817 112.182 142.539 113.54C147.261 114.898 152.899 115.577 159.451 115.577Z"/>
<path d="M0 133.905V3.21361H56.4029C67.9727 3.21361 76.9157 4.83693 83.2319 8.08356C89.5481 11.3302 93.9163 15.8755 96.3365 21.7194C98.8157 27.5634 100.055 34.4108 100.055 42.2618C100.055 47.6335 99.5536 52.6805 98.5501 57.4029C97.6056 62.0662 95.7462 66.1983 92.9718 69.7991C90.1974 73.3999 86.1539 76.2924 80.8412 78.4765L106.076 133.905H78.8046L55.8716 82.2839H26.2977V133.905H0ZM26.2977 63.5125H58.6165C63.1028 63.5125 66.497 62.627 68.7991 60.8561C71.1603 59.0262 72.7541 56.606 73.5805 53.5955C74.466 50.5259 74.9087 47.1317 74.9087 43.4128C74.9087 39.8711 74.525 36.4473 73.7576 33.1417C73.0493 29.836 71.603 27.1502 69.4189 25.0841C67.2939 22.959 64.0472 21.8965 59.679 21.8965H26.2977V63.5125Z"/>
</mask>
<path d="M553.403 3.21361H639.026V23.0476H579.613V57.7571H632.297V76.7056H579.613V114.071H640V133.905H553.403V3.21361Z" fill="url(#pattern0_94_680)"/>
<path d="M449.204 133.905V3.21361H505.607C517.177 3.21361 526.12 4.83693 532.436 8.08356C538.752 11.3302 543.12 15.8755 545.541 21.7194C548.02 27.5634 549.26 34.4108 549.26 42.2618C549.26 47.6335 548.758 52.6805 547.754 57.4029C546.81 62.0662 544.95 66.1983 542.176 69.7991C539.402 73.3999 535.358 76.2924 530.045 78.4765L555.281 133.905H528.009L505.076 82.2839H475.502V133.905H449.204ZM475.502 63.5125H507.821C512.307 63.5125 515.701 62.627 518.003 60.8561C520.364 59.0262 521.958 56.606 522.785 53.5955C523.67 50.5259 524.113 47.1317 524.113 43.4128C524.113 39.8711 523.729 36.4473 522.962 33.1417C522.253 29.836 520.807 27.1502 518.623 25.0841C516.498 22.959 513.251 21.8965 508.883 21.8965H475.502V63.5125Z" fill="url(#pattern1_94_680)"/>
<path d="M389.454 136.208C377.707 136.208 368.056 134.997 360.5 132.577C352.944 130.157 347.071 126.822 342.88 122.572C338.689 118.322 335.737 113.363 334.025 107.696C332.373 102.029 331.546 95.9788 331.546 89.5445V48.637C331.546 42.0256 332.373 35.857 334.025 30.1312C335.678 24.3462 338.6 19.2697 342.791 14.9015C346.982 10.5333 352.856 7.13909 360.412 4.71887C367.968 2.23962 377.648 1 389.454 1C400.729 1 409.997 2.29865 417.257 4.89596C424.577 7.49327 430.273 11.0646 434.346 15.6098C438.479 20.0961 441.341 25.2907 442.935 31.1937C444.588 37.0967 445.414 43.3538 445.414 49.9651V88.1278C445.414 94.5621 444.588 100.672 442.935 106.457C441.282 112.182 438.39 117.289 434.258 121.775C430.185 126.261 424.518 129.803 417.257 132.4C409.997 134.938 400.729 136.208 389.454 136.208ZM389.454 115.577C396.066 115.577 401.555 114.898 405.924 113.54C410.292 112.182 413.568 109.821 415.752 106.457C417.936 103.092 419.028 98.4285 419.028 92.4665V45.0952C419.028 39.2512 417.936 34.6174 415.752 31.1937C413.568 27.77 410.262 25.3202 405.835 23.8445C401.467 22.3687 396.007 21.6309 389.454 21.6309C382.961 21.6309 377.353 22.3392 372.631 23.7559C367.909 25.1727 364.278 27.5929 361.74 31.0166C359.202 34.4403 357.932 39.1332 357.932 45.0952V92.4665C357.932 98.4285 359.172 103.092 361.651 106.457C364.19 109.821 367.82 112.182 372.542 113.54C377.265 114.898 382.902 115.577 389.454 115.577Z" fill="url(#pattern2_94_680)"/>
<path d="M291.807 181.188L263.296 135.765C250.782 134.702 241.13 132.016 234.342 127.707C227.613 123.398 222.949 117.938 220.352 111.327C217.814 104.656 216.545 97.3955 216.545 89.5445V48.637C216.545 42.0256 217.371 35.857 219.024 30.1312C220.677 24.3462 223.599 19.2697 227.79 14.9015C231.981 10.5333 237.854 7.13909 245.41 4.71887C252.966 2.23962 262.647 1 274.453 1C285.727 1 294.995 2.29865 302.256 4.89596C309.575 7.49327 315.272 11.0646 319.345 15.6098C323.477 20.0961 326.34 25.2907 327.934 31.1937C329.586 37.0967 330.413 43.3538 330.413 49.9651V88.1278C330.413 95.8017 329.173 103.003 326.694 109.733C324.274 116.462 319.906 122.129 313.589 126.733C307.332 131.338 298.419 134.289 286.849 135.588L309.251 170.917L291.807 181.188ZM274.453 115.577C281.064 115.577 286.554 114.898 290.922 113.54C295.29 112.182 298.566 109.821 300.75 106.457C302.935 103.092 304.027 98.4285 304.027 92.4665V45.0952C304.027 39.2512 302.935 34.6174 300.75 31.1937C298.566 27.77 295.261 25.3202 290.833 23.8445C286.465 22.3687 281.005 21.6309 274.453 21.6309C267.959 21.6309 262.352 22.3392 257.629 23.7559C252.907 25.1727 249.277 27.5929 246.738 31.0166C244.2 34.4403 242.931 39.1332 242.931 45.0952V92.4665C242.931 98.4285 244.17 103.092 246.65 106.457C249.188 109.821 252.818 112.182 257.541 113.54C262.263 114.898 267.9 115.577 274.453 115.577Z" fill="url(#pattern3_94_680)"/>
<path d="M159.451 136.208C147.704 136.208 138.053 134.997 130.497 132.577C122.941 130.157 117.068 126.822 112.877 122.572C108.685 118.322 105.734 113.363 104.022 107.696C102.369 102.029 101.543 95.9788 101.543 89.5445V48.637C101.543 42.0256 102.369 35.857 104.022 30.1312C105.675 24.3462 108.597 19.2697 112.788 14.9015C116.979 10.5333 122.853 7.13909 130.408 4.71887C137.964 2.23962 147.645 1 159.451 1C170.726 1 179.993 2.29865 187.254 4.89596C194.574 7.49327 200.27 11.0646 204.343 15.6098C208.475 20.0961 211.338 25.2907 212.932 31.1937C214.585 37.0967 215.411 43.3538 215.411 49.9651V88.1278C215.411 94.5621 214.585 100.672 212.932 106.457C211.279 112.182 208.387 117.289 204.255 121.775C200.182 126.261 194.515 129.803 187.254 132.4C179.993 134.938 170.726 136.208 159.451 136.208ZM159.451 115.577C166.062 115.577 171.552 114.898 175.92 113.54C180.289 112.182 183.565 109.821 185.749 106.457C187.933 103.092 189.025 98.4285 189.025 92.4665V45.0952C189.025 39.2512 187.933 34.6174 185.749 31.1937C183.565 27.77 180.259 25.3202 175.832 23.8445C171.464 22.3687 166.003 21.6309 159.451 21.6309C152.958 21.6309 147.35 22.3392 142.628 23.7559C137.905 25.1727 134.275 27.5929 131.737 31.0166C129.198 34.4403 127.929 39.1332 127.929 45.0952V92.4665C127.929 98.4285 129.169 103.092 131.648 106.457C134.186 109.821 137.817 112.182 142.539 113.54C147.261 114.898 152.899 115.577 159.451 115.577Z" fill="url(#pattern4_94_680)"/>
<path d="M0 133.905V3.21361H56.4029C67.9727 3.21361 76.9157 4.83693 83.2319 8.08356C89.5481 11.3302 93.9163 15.8755 96.3365 21.7194C98.8157 27.5634 100.055 34.4108 100.055 42.2618C100.055 47.6335 99.5536 52.6805 98.5501 57.4029C97.6056 62.0662 95.7462 66.1983 92.9718 69.7991C90.1974 73.3999 86.1539 76.2924 80.8412 78.4765L106.076 133.905H78.8046L55.8716 82.2839H26.2977V133.905H0ZM26.2977 63.5125H58.6165C63.1028 63.5125 66.497 62.627 68.7991 60.8561C71.1603 59.0262 72.7541 56.606 73.5805 53.5955C74.466 50.5259 74.9087 47.1317 74.9087 43.4128C74.9087 39.8711 74.525 36.4473 73.7576 33.1417C73.0493 29.836 71.603 27.1502 69.4189 25.0841C67.2939 22.959 64.0472 21.8965 59.679 21.8965H26.2977V63.5125Z" fill="url(#pattern5_94_680)"/>
<path d="M553.403 3.21361H639.026V23.0476H579.613V57.7571H632.297V76.7056H579.613V114.071H640V133.905H553.403V3.21361Z" stroke="#DAE2F4" stroke-width="2" mask="url(#path-1-outside-1_94_680)"/>
<path d="M449.204 133.905V3.21361H505.607C517.177 3.21361 526.12 4.83693 532.436 8.08356C538.752 11.3302 543.12 15.8755 545.541 21.7194C548.02 27.5634 549.26 34.4108 549.26 42.2618C549.26 47.6335 548.758 52.6805 547.754 57.4029C546.81 62.0662 544.95 66.1983 542.176 69.7991C539.402 73.3999 535.358 76.2924 530.045 78.4765L555.281 133.905H528.009L505.076 82.2839H475.502V133.905H449.204ZM475.502 63.5125H507.821C512.307 63.5125 515.701 62.627 518.003 60.8561C520.364 59.0262 521.958 56.606 522.785 53.5955C523.67 50.5259 524.113 47.1317 524.113 43.4128C524.113 39.8711 523.729 36.4473 522.962 33.1417C522.253 29.836 520.807 27.1502 518.623 25.0841C516.498 22.959 513.251 21.8965 508.883 21.8965H475.502V63.5125Z" stroke="#DAE2F4" stroke-width="2" mask="url(#path-1-outside-1_94_680)"/>
<path d="M389.454 136.208C377.707 136.208 368.056 134.997 360.5 132.577C352.944 130.157 347.071 126.822 342.88 122.572C338.689 118.322 335.737 113.363 334.025 107.696C332.373 102.029 331.546 95.9788 331.546 89.5445V48.637C331.546 42.0256 332.373 35.857 334.025 30.1312C335.678 24.3462 338.6 19.2697 342.791 14.9015C346.982 10.5333 352.856 7.13909 360.412 4.71887C367.968 2.23962 377.648 1 389.454 1C400.729 1 409.997 2.29865 417.257 4.89596C424.577 7.49327 430.273 11.0646 434.346 15.6098C438.479 20.0961 441.341 25.2907 442.935 31.1937C444.588 37.0967 445.414 43.3538 445.414 49.9651V88.1278C445.414 94.5621 444.588 100.672 442.935 106.457C441.282 112.182 438.39 117.289 434.258 121.775C430.185 126.261 424.518 129.803 417.257 132.4C409.997 134.938 400.729 136.208 389.454 136.208ZM389.454 115.577C396.066 115.577 401.555 114.898 405.924 113.54C410.292 112.182 413.568 109.821 415.752 106.457C417.936 103.092 419.028 98.4285 419.028 92.4665V45.0952C419.028 39.2512 417.936 34.6174 415.752 31.1937C413.568 27.77 410.262 25.3202 405.835 23.8445C401.467 22.3687 396.007 21.6309 389.454 21.6309C382.961 21.6309 377.353 22.3392 372.631 23.7559C367.909 25.1727 364.278 27.5929 361.74 31.0166C359.202 34.4403 357.932 39.1332 357.932 45.0952V92.4665C357.932 98.4285 359.172 103.092 361.651 106.457C364.19 109.821 367.82 112.182 372.542 113.54C377.265 114.898 382.902 115.577 389.454 115.577Z" stroke="#DAE2F4" stroke-width="2" mask="url(#path-1-outside-1_94_680)"/>
<path d="M291.807 181.188L263.296 135.765C250.782 134.702 241.13 132.016 234.342 127.707C227.613 123.398 222.949 117.938 220.352 111.327C217.814 104.656 216.545 97.3955 216.545 89.5445V48.637C216.545 42.0256 217.371 35.857 219.024 30.1312C220.677 24.3462 223.599 19.2697 227.79 14.9015C231.981 10.5333 237.854 7.13909 245.41 4.71887C252.966 2.23962 262.647 1 274.453 1C285.727 1 294.995 2.29865 302.256 4.89596C309.575 7.49327 315.272 11.0646 319.345 15.6098C323.477 20.0961 326.34 25.2907 327.934 31.1937C329.586 37.0967 330.413 43.3538 330.413 49.9651V88.1278C330.413 95.8017 329.173 103.003 326.694 109.733C324.274 116.462 319.906 122.129 313.589 126.733C307.332 131.338 298.419 134.289 286.849 135.588L309.251 170.917L291.807 181.188ZM274.453 115.577C281.064 115.577 286.554 114.898 290.922 113.54C295.29 112.182 298.566 109.821 300.75 106.457C302.935 103.092 304.027 98.4285 304.027 92.4665V45.0952C304.027 39.2512 302.935 34.6174 300.75 31.1937C298.566 27.77 295.261 25.3202 290.833 23.8445C286.465 22.3687 281.005 21.6309 274.453 21.6309C267.959 21.6309 262.352 22.3392 257.629 23.7559C252.907 25.1727 249.277 27.5929 246.738 31.0166C244.2 34.4403 242.931 39.1332 242.931 45.0952V92.4665C242.931 98.4285 244.17 103.092 246.65 106.457C249.188 109.821 252.818 112.182 257.541 113.54C262.263 114.898 267.9 115.577 274.453 115.577Z" stroke="#DAE2F4" stroke-width="2" mask="url(#path-1-outside-1_94_680)"/>
<path d="M159.451 136.208C147.704 136.208 138.053 134.997 130.497 132.577C122.941 130.157 117.068 126.822 112.877 122.572C108.685 118.322 105.734 113.363 104.022 107.696C102.369 102.029 101.543 95.9788 101.543 89.5445V48.637C101.543 42.0256 102.369 35.857 104.022 30.1312C105.675 24.3462 108.597 19.2697 112.788 14.9015C116.979 10.5333 122.853 7.13909 130.408 4.71887C137.964 2.23962 147.645 1 159.451 1C170.726 1 179.993 2.29865 187.254 4.89596C194.574 7.49327 200.27 11.0646 204.343 15.6098C208.475 20.0961 211.338 25.2907 212.932 31.1937C214.585 37.0967 215.411 43.3538 215.411 49.9651V88.1278C215.411 94.5621 214.585 100.672 212.932 106.457C211.279 112.182 208.387 117.289 204.255 121.775C200.182 126.261 194.515 129.803 187.254 132.4C179.993 134.938 170.726 136.208 159.451 136.208ZM159.451 115.577C166.062 115.577 171.552 114.898 175.92 113.54C180.289 112.182 183.565 109.821 185.749 106.457C187.933 103.092 189.025 98.4285 189.025 92.4665V45.0952C189.025 39.2512 187.933 34.6174 185.749 31.1937C183.565 27.77 180.259 25.3202 175.832 23.8445C171.464 22.3687 166.003 21.6309 159.451 21.6309C152.958 21.6309 147.35 22.3392 142.628 23.7559C137.905 25.1727 134.275 27.5929 131.737 31.0166C129.198 34.4403 127.929 39.1332 127.929 45.0952V92.4665C127.929 98.4285 129.169 103.092 131.648 106.457C134.186 109.821 137.817 112.182 142.539 113.54C147.261 114.898 152.899 115.577 159.451 115.577Z" stroke="#DAE2F4" stroke-width="2" mask="url(#path-1-outside-1_94_680)"/>
<path d="M0 133.905V3.21361H56.4029C67.9727 3.21361 76.9157 4.83693 83.2319 8.08356C89.5481 11.3302 93.9163 15.8755 96.3365 21.7194C98.8157 27.5634 100.055 34.4108 100.055 42.2618C100.055 47.6335 99.5536 52.6805 98.5501 57.4029C97.6056 62.0662 95.7462 66.1983 92.9718 69.7991C90.1974 73.3999 86.1539 76.2924 80.8412 78.4765L106.076 133.905H78.8046L55.8716 82.2839H26.2977V133.905H0ZM26.2977 63.5125H58.6165C63.1028 63.5125 66.497 62.627 68.7991 60.8561C71.1603 59.0262 72.7541 56.606 73.5805 53.5955C74.466 50.5259 74.9087 47.1317 74.9087 43.4128C74.9087 39.8711 74.525 36.4473 73.7576 33.1417C73.0493 29.836 71.603 27.1502 69.4189 25.0841C67.2939 22.959 64.0472 21.8965 59.679 21.8965H26.2977V63.5125Z" stroke="#DAE2F4" stroke-width="2" mask="url(#path-1-outside-1_94_680)"/>
<defs>
<pattern id="pattern0_94_680" patternUnits="userSpaceOnUse" viewBox="1746 -3403 649 649" width="101.40625000000001%" height="360.1790561302065%" patternContentUnits="objectBoundingBox">
<g clip-path="url(#clip0_94_680)">
<rect width="649" height="649" transform="translate(1746 -3403)" fill="#C6D7FD" fill-opacity="0.1"/>
<line x1="1568.43" y1="-2575.61" x2="2571.81" y2="-3579" stroke="#DAE2F4"/>
<line x1="1257.08" y1="-2916.64" x2="2260.47" y2="-3920.02" stroke="#DAE2F4"/>
<line x1="1275.95" y1="-2895.97" x2="2279.34" y2="-3899.35" stroke="#DAE2F4"/>
<line x1="1285.39" y1="-2885.63" x2="2288.77" y2="-3889.02" stroke="#DAE2F4"/>
<line x1="1266.52" y1="-2906.3" x2="2269.9" y2="-3909.69" stroke="#DAE2F4"/>
<line x1="1294.82" y1="-2875.3" x2="2298.2" y2="-3878.68" stroke="#DAE2F4"/>
<line x1="1304.25" y1="-2864.97" x2="2307.64" y2="-3868.35" stroke="#DAE2F4"/>
<line x1="1313.69" y1="-2854.63" x2="2317.07" y2="-3858.02" stroke="#DAE2F4"/>
<line x1="1323.12" y1="-2844.3" x2="2326.51" y2="-3847.68" stroke="#DAE2F4"/>
<line x1="1360.86" y1="-2802.96" x2="2364.25" y2="-3806.35" stroke="#DAE2F4"/>
<line x1="1370.3" y1="-2792.63" x2="2373.68" y2="-3796.01" stroke="#DAE2F4"/>
<line x1="1379.73" y1="-2782.29" x2="2383.12" y2="-3785.68" stroke="#DAE2F4"/>
<line x1="1389.17" y1="-2771.96" x2="2392.55" y2="-3775.34" stroke="#DAE2F4"/>
<line x1="1408.04" y1="-2751.29" x2="2411.42" y2="-3754.68" stroke="#DAE2F4"/>
<line x1="1398.6" y1="-2761.63" x2="2401.99" y2="-3765.01" stroke="#DAE2F4"/>
<line x1="1332.56" y1="-2833.96" x2="2335.94" y2="-3837.35" stroke="#DAE2F4"/>
<line x1="1417.47" y1="-2740.96" x2="2420.86" y2="-3744.34" stroke="#DAE2F4"/>
<line x1="1426.91" y1="-2730.62" x2="2430.29" y2="-3734.01" stroke="#DAE2F4"/>
<line x1="1436.34" y1="-2720.29" x2="2439.73" y2="-3723.67" stroke="#DAE2F4"/>
<line x1="1445.78" y1="-2709.96" x2="2449.16" y2="-3713.34" stroke="#DAE2F4"/>
<line x1="1351.43" y1="-2813.3" x2="2354.81" y2="-3816.68" stroke="#DAE2F4"/>
<line x1="1455.21" y1="-2699.62" x2="2458.6" y2="-3703.01" stroke="#DAE2F4"/>
<line x1="1464.65" y1="-2689.29" x2="2468.03" y2="-3692.67" stroke="#DAE2F4"/>
<line x1="1474.08" y1="-2678.95" x2="2477.47" y2="-3682.34" stroke="#DAE2F4"/>
<line x1="1483.51" y1="-2668.62" x2="2486.9" y2="-3672" stroke="#DAE2F4"/>
<line x1="1492.95" y1="-2658.29" x2="2496.33" y2="-3661.67" stroke="#DAE2F4"/>
<line x1="1502.38" y1="-2647.95" x2="2505.77" y2="-3651.34" stroke="#DAE2F4"/>
<line x1="1511.82" y1="-2637.62" x2="2515.2" y2="-3641" stroke="#DAE2F4"/>
<line x1="1521.25" y1="-2627.28" x2="2524.64" y2="-3630.67" stroke="#DAE2F4"/>
<line x1="1530.69" y1="-2616.95" x2="2534.07" y2="-3620.33" stroke="#DAE2F4"/>
<line x1="1540.12" y1="-2606.62" x2="2543.51" y2="-3610" stroke="#DAE2F4"/>
<line x1="1549.56" y1="-2596.28" x2="2552.94" y2="-3599.67" stroke="#DAE2F4"/>
<line x1="1341.99" y1="-2823.63" x2="2345.38" y2="-3827.01" stroke="#DAE2F4"/>
<line x1="1558.99" y1="-2585.95" x2="2562.38" y2="-3589.33" stroke="#DAE2F4"/>
<line x1="1247.65" y1="-2926.97" x2="2251.03" y2="-3930.35" stroke="#DAE2F4"/>
<line x1="1898.64" y1="-2213.92" x2="2902.03" y2="-3217.31" stroke="#DAE2F4"/>
<line x1="1587.3" y1="-2554.95" x2="2590.68" y2="-3558.33" stroke="#DAE2F4"/>
<line x1="1606.17" y1="-2534.28" x2="2609.55" y2="-3537.66" stroke="#DAE2F4"/>
<line x1="1615.6" y1="-2523.94" x2="2618.99" y2="-3527.33" stroke="#DAE2F4"/>
<line x1="1596.73" y1="-2544.61" x2="2600.12" y2="-3548" stroke="#DAE2F4"/>
<line x1="1625.04" y1="-2513.61" x2="2628.42" y2="-3516.99" stroke="#DAE2F4"/>
<line x1="1634.47" y1="-2503.28" x2="2637.86" y2="-3506.66" stroke="#DAE2F4"/>
<line x1="1643.91" y1="-2492.94" x2="2647.29" y2="-3496.33" stroke="#DAE2F4"/>
<line x1="1653.34" y1="-2482.61" x2="2656.72" y2="-3485.99" stroke="#DAE2F4"/>
<line x1="1691.08" y1="-2441.27" x2="2694.46" y2="-3444.66" stroke="#DAE2F4"/>
<line x1="1700.51" y1="-2430.94" x2="2703.9" y2="-3434.32" stroke="#DAE2F4"/>
<line x1="1709.95" y1="-2420.6" x2="2713.33" y2="-3423.99" stroke="#DAE2F4"/>
<line x1="1719.38" y1="-2410.27" x2="2722.77" y2="-3413.65" stroke="#DAE2F4"/>
<line x1="1738.25" y1="-2389.6" x2="2741.64" y2="-3392.99" stroke="#DAE2F4"/>
<line x1="1728.82" y1="-2399.94" x2="2732.2" y2="-3403.32" stroke="#DAE2F4"/>
<line x1="1662.78" y1="-2472.27" x2="2666.16" y2="-3475.66" stroke="#DAE2F4"/>
<line x1="1747.69" y1="-2379.27" x2="2751.07" y2="-3382.65" stroke="#DAE2F4"/>
<line x1="1757.12" y1="-2368.93" x2="2760.51" y2="-3372.32" stroke="#DAE2F4"/>
<line x1="1766.56" y1="-2358.6" x2="2769.94" y2="-3361.98" stroke="#DAE2F4"/>
<line x1="1775.99" y1="-2348.27" x2="2779.38" y2="-3351.65" stroke="#DAE2F4"/>
<line x1="1681.64" y1="-2451.61" x2="2685.03" y2="-3454.99" stroke="#DAE2F4"/>
<line x1="1785.43" y1="-2337.93" x2="2788.81" y2="-3341.32" stroke="#DAE2F4"/>
<line x1="1794.86" y1="-2327.6" x2="2798.25" y2="-3330.98" stroke="#DAE2F4"/>
<line x1="1804.3" y1="-2317.26" x2="2807.68" y2="-3320.65" stroke="#DAE2F4"/>
<line x1="1813.73" y1="-2306.93" x2="2817.12" y2="-3310.31" stroke="#DAE2F4"/>
<line x1="1823.17" y1="-2296.6" x2="2826.55" y2="-3299.98" stroke="#DAE2F4"/>
<line x1="1832.6" y1="-2286.26" x2="2835.99" y2="-3289.65" stroke="#DAE2F4"/>
<line x1="1842.04" y1="-2275.93" x2="2845.42" y2="-3279.31" stroke="#DAE2F4"/>
<line x1="1851.47" y1="-2265.59" x2="2854.85" y2="-3268.98" stroke="#DAE2F4"/>
<line x1="1860.9" y1="-2255.26" x2="2864.29" y2="-3258.64" stroke="#DAE2F4"/>
<line x1="1870.34" y1="-2244.93" x2="2873.72" y2="-3248.31" stroke="#DAE2F4"/>
<line x1="1879.77" y1="-2234.59" x2="2883.16" y2="-3237.98" stroke="#DAE2F4"/>
<line x1="1672.21" y1="-2461.94" x2="2675.59" y2="-3465.32" stroke="#DAE2F4"/>
<line x1="1889.21" y1="-2224.26" x2="2892.59" y2="-3227.64" stroke="#DAE2F4"/>
<line x1="1577.86" y1="-2565.28" x2="2581.25" y2="-3568.66" stroke="#DAE2F4"/>
</g>
</pattern><pattern id="pattern1_94_680" patternUnits="userSpaceOnUse" viewBox="1746 -3403 649 649" width="101.40625000000001%" height="360.1790561302065%" patternContentUnits="objectBoundingBox">
<g clip-path="url(#clip1_94_680)">
<rect width="649" height="649" transform="translate(1746 -3403)" fill="#C6D7FD" fill-opacity="0.1"/>
<line x1="1568.43" y1="-2575.61" x2="2571.81" y2="-3579" stroke="#DAE2F4"/>
<line x1="1257.08" y1="-2916.64" x2="2260.47" y2="-3920.02" stroke="#DAE2F4"/>
<line x1="1275.95" y1="-2895.97" x2="2279.34" y2="-3899.35" stroke="#DAE2F4"/>
<line x1="1285.39" y1="-2885.63" x2="2288.77" y2="-3889.02" stroke="#DAE2F4"/>
<line x1="1266.52" y1="-2906.3" x2="2269.9" y2="-3909.69" stroke="#DAE2F4"/>
<line x1="1294.82" y1="-2875.3" x2="2298.2" y2="-3878.68" stroke="#DAE2F4"/>
<line x1="1304.25" y1="-2864.97" x2="2307.64" y2="-3868.35" stroke="#DAE2F4"/>
<line x1="1313.69" y1="-2854.63" x2="2317.07" y2="-3858.02" stroke="#DAE2F4"/>
<line x1="1323.12" y1="-2844.3" x2="2326.51" y2="-3847.68" stroke="#DAE2F4"/>
<line x1="1360.86" y1="-2802.96" x2="2364.25" y2="-3806.35" stroke="#DAE2F4"/>
<line x1="1370.3" y1="-2792.63" x2="2373.68" y2="-3796.01" stroke="#DAE2F4"/>
<line x1="1379.73" y1="-2782.29" x2="2383.12" y2="-3785.68" stroke="#DAE2F4"/>
<line x1="1389.17" y1="-2771.96" x2="2392.55" y2="-3775.34" stroke="#DAE2F4"/>
<line x1="1408.04" y1="-2751.29" x2="2411.42" y2="-3754.68" stroke="#DAE2F4"/>
<line x1="1398.6" y1="-2761.63" x2="2401.99" y2="-3765.01" stroke="#DAE2F4"/>
<line x1="1332.56" y1="-2833.96" x2="2335.94" y2="-3837.35" stroke="#DAE2F4"/>
<line x1="1417.47" y1="-2740.96" x2="2420.86" y2="-3744.34" stroke="#DAE2F4"/>
<line x1="1426.91" y1="-2730.62" x2="2430.29" y2="-3734.01" stroke="#DAE2F4"/>
<line x1="1436.34" y1="-2720.29" x2="2439.73" y2="-3723.67" stroke="#DAE2F4"/>
<line x1="1445.78" y1="-2709.96" x2="2449.16" y2="-3713.34" stroke="#DAE2F4"/>
<line x1="1351.43" y1="-2813.3" x2="2354.81" y2="-3816.68" stroke="#DAE2F4"/>
<line x1="1455.21" y1="-2699.62" x2="2458.6" y2="-3703.01" stroke="#DAE2F4"/>
<line x1="1464.65" y1="-2689.29" x2="2468.03" y2="-3692.67" stroke="#DAE2F4"/>
<line x1="1474.08" y1="-2678.95" x2="2477.47" y2="-3682.34" stroke="#DAE2F4"/>
<line x1="1483.51" y1="-2668.62" x2="2486.9" y2="-3672" stroke="#DAE2F4"/>
<line x1="1492.95" y1="-2658.29" x2="2496.33" y2="-3661.67" stroke="#DAE2F4"/>
<line x1="1502.38" y1="-2647.95" x2="2505.77" y2="-3651.34" stroke="#DAE2F4"/>
<line x1="1511.82" y1="-2637.62" x2="2515.2" y2="-3641" stroke="#DAE2F4"/>
<line x1="1521.25" y1="-2627.28" x2="2524.64" y2="-3630.67" stroke="#DAE2F4"/>
<line x1="1530.69" y1="-2616.95" x2="2534.07" y2="-3620.33" stroke="#DAE2F4"/>
<line x1="1540.12" y1="-2606.62" x2="2543.51" y2="-3610" stroke="#DAE2F4"/>
<line x1="1549.56" y1="-2596.28" x2="2552.94" y2="-3599.67" stroke="#DAE2F4"/>
<line x1="1341.99" y1="-2823.63" x2="2345.38" y2="-3827.01" stroke="#DAE2F4"/>
<line x1="1558.99" y1="-2585.95" x2="2562.38" y2="-3589.33" stroke="#DAE2F4"/>
<line x1="1247.65" y1="-2926.97" x2="2251.03" y2="-3930.35" stroke="#DAE2F4"/>
<line x1="1898.64" y1="-2213.92" x2="2902.03" y2="-3217.31" stroke="#DAE2F4"/>
<line x1="1587.3" y1="-2554.95" x2="2590.68" y2="-3558.33" stroke="#DAE2F4"/>
<line x1="1606.17" y1="-2534.28" x2="2609.55" y2="-3537.66" stroke="#DAE2F4"/>
<line x1="1615.6" y1="-2523.94" x2="2618.99" y2="-3527.33" stroke="#DAE2F4"/>
<line x1="1596.73" y1="-2544.61" x2="2600.12" y2="-3548" stroke="#DAE2F4"/>
<line x1="1625.04" y1="-2513.61" x2="2628.42" y2="-3516.99" stroke="#DAE2F4"/>
<line x1="1634.47" y1="-2503.28" x2="2637.86" y2="-3506.66" stroke="#DAE2F4"/>
<line x1="1643.91" y1="-2492.94" x2="2647.29" y2="-3496.33" stroke="#DAE2F4"/>
<line x1="1653.34" y1="-2482.61" x2="2656.72" y2="-3485.99" stroke="#DAE2F4"/>
<line x1="1691.08" y1="-2441.27" x2="2694.46" y2="-3444.66" stroke="#DAE2F4"/>
<line x1="1700.51" y1="-2430.94" x2="2703.9" y2="-3434.32" stroke="#DAE2F4"/>
<line x1="1709.95" y1="-2420.6" x2="2713.33" y2="-3423.99" stroke="#DAE2F4"/>
<line x1="1719.38" y1="-2410.27" x2="2722.77" y2="-3413.65" stroke="#DAE2F4"/>
<line x1="1738.25" y1="-2389.6" x2="2741.64" y2="-3392.99" stroke="#DAE2F4"/>
<line x1="1728.82" y1="-2399.94" x2="2732.2" y2="-3403.32" stroke="#DAE2F4"/>
<line x1="1662.78" y1="-2472.27" x2="2666.16" y2="-3475.66" stroke="#DAE2F4"/>
<line x1="1747.69" y1="-2379.27" x2="2751.07" y2="-3382.65" stroke="#DAE2F4"/>
<line x1="1757.12" y1="-2368.93" x2="2760.51" y2="-3372.32" stroke="#DAE2F4"/>
<line x1="1766.56" y1="-2358.6" x2="2769.94" y2="-3361.98" stroke="#DAE2F4"/>
<line x1="1775.99" y1="-2348.27" x2="2779.38" y2="-3351.65" stroke="#DAE2F4"/>
<line x1="1681.64" y1="-2451.61" x2="2685.03" y2="-3454.99" stroke="#DAE2F4"/>
<line x1="1785.43" y1="-2337.93" x2="2788.81" y2="-3341.32" stroke="#DAE2F4"/>
<line x1="1794.86" y1="-2327.6" x2="2798.25" y2="-3330.98" stroke="#DAE2F4"/>
<line x1="1804.3" y1="-2317.26" x2="2807.68" y2="-3320.65" stroke="#DAE2F4"/>
<line x1="1813.73" y1="-2306.93" x2="2817.12" y2="-3310.31" stroke="#DAE2F4"/>
<line x1="1823.17" y1="-2296.6" x2="2826.55" y2="-3299.98" stroke="#DAE2F4"/>
<line x1="1832.6" y1="-2286.26" x2="2835.99" y2="-3289.65" stroke="#DAE2F4"/>
<line x1="1842.04" y1="-2275.93" x2="2845.42" y2="-3279.31" stroke="#DAE2F4"/>
<line x1="1851.47" y1="-2265.59" x2="2854.85" y2="-3268.98" stroke="#DAE2F4"/>
<line x1="1860.9" y1="-2255.26" x2="2864.29" y2="-3258.64" stroke="#DAE2F4"/>
<line x1="1870.34" y1="-2244.93" x2="2873.72" y2="-3248.31" stroke="#DAE2F4"/>
<line x1="1879.77" y1="-2234.59" x2="2883.16" y2="-3237.98" stroke="#DAE2F4"/>
<line x1="1672.21" y1="-2461.94" x2="2675.59" y2="-3465.32" stroke="#DAE2F4"/>
<line x1="1889.21" y1="-2224.26" x2="2892.59" y2="-3227.64" stroke="#DAE2F4"/>
<line x1="1577.86" y1="-2565.28" x2="2581.25" y2="-3568.66" stroke="#DAE2F4"/>
</g>
</pattern><pattern id="pattern2_94_680" patternUnits="userSpaceOnUse" viewBox="1746 -3403 649 649" width="101.40625000000001%" height="360.1790561302065%" patternContentUnits="objectBoundingBox">
<g clip-path="url(#clip2_94_680)">
<rect width="649" height="649" transform="translate(1746 -3403)" fill="#C6D7FD" fill-opacity="0.1"/>
<line x1="1568.43" y1="-2575.61" x2="2571.81" y2="-3579" stroke="#DAE2F4"/>
<line x1="1257.08" y1="-2916.64" x2="2260.47" y2="-3920.02" stroke="#DAE2F4"/>
<line x1="1275.95" y1="-2895.97" x2="2279.34" y2="-3899.35" stroke="#DAE2F4"/>
<line x1="1285.39" y1="-2885.63" x2="2288.77" y2="-3889.02" stroke="#DAE2F4"/>
<line x1="1266.52" y1="-2906.3" x2="2269.9" y2="-3909.69" stroke="#DAE2F4"/>
<line x1="1294.82" y1="-2875.3" x2="2298.2" y2="-3878.68" stroke="#DAE2F4"/>
<line x1="1304.25" y1="-2864.97" x2="2307.64" y2="-3868.35" stroke="#DAE2F4"/>
<line x1="1313.69" y1="-2854.63" x2="2317.07" y2="-3858.02" stroke="#DAE2F4"/>
<line x1="1323.12" y1="-2844.3" x2="2326.51" y2="-3847.68" stroke="#DAE2F4"/>
<line x1="1360.86" y1="-2802.96" x2="2364.25" y2="-3806.35" stroke="#DAE2F4"/>
<line x1="1370.3" y1="-2792.63" x2="2373.68" y2="-3796.01" stroke="#DAE2F4"/>
<line x1="1379.73" y1="-2782.29" x2="2383.12" y2="-3785.68" stroke="#DAE2F4"/>
<line x1="1389.17" y1="-2771.96" x2="2392.55" y2="-3775.34" stroke="#DAE2F4"/>
<line x1="1408.04" y1="-2751.29" x2="2411.42" y2="-3754.68" stroke="#DAE2F4"/>
<line x1="1398.6" y1="-2761.63" x2="2401.99" y2="-3765.01" stroke="#DAE2F4"/>
<line x1="1332.56" y1="-2833.96" x2="2335.94" y2="-3837.35" stroke="#DAE2F4"/>
<line x1="1417.47" y1="-2740.96" x2="2420.86" y2="-3744.34" stroke="#DAE2F4"/>
<line x1="1426.91" y1="-2730.62" x2="2430.29" y2="-3734.01" stroke="#DAE2F4"/>
<line x1="1436.34" y1="-2720.29" x2="2439.73" y2="-3723.67" stroke="#DAE2F4"/>
<line x1="1445.78" y1="-2709.96" x2="2449.16" y2="-3713.34" stroke="#DAE2F4"/>
<line x1="1351.43" y1="-2813.3" x2="2354.81" y2="-3816.68" stroke="#DAE2F4"/>
<line x1="1455.21" y1="-2699.62" x2="2458.6" y2="-3703.01" stroke="#DAE2F4"/>
<line x1="1464.65" y1="-2689.29" x2="2468.03" y2="-3692.67" stroke="#DAE2F4"/>
<line x1="1474.08" y1="-2678.95" x2="2477.47" y2="-3682.34" stroke="#DAE2F4"/>
<line x1="1483.51" y1="-2668.62" x2="2486.9" y2="-3672" stroke="#DAE2F4"/>
<line x1="1492.95" y1="-2658.29" x2="2496.33" y2="-3661.67" stroke="#DAE2F4"/>
<line x1="1502.38" y1="-2647.95" x2="2505.77" y2="-3651.34" stroke="#DAE2F4"/>
<line x1="1511.82" y1="-2637.62" x2="2515.2" y2="-3641" stroke="#DAE2F4"/>
<line x1="1521.25" y1="-2627.28" x2="2524.64" y2="-3630.67" stroke="#DAE2F4"/>
<line x1="1530.69" y1="-2616.95" x2="2534.07" y2="-3620.33" stroke="#DAE2F4"/>
<line x1="1540.12" y1="-2606.62" x2="2543.51" y2="-3610" stroke="#DAE2F4"/>
<line x1="1549.56" y1="-2596.28" x2="2552.94" y2="-3599.67" stroke="#DAE2F4"/>
<line x1="1341.99" y1="-2823.63" x2="2345.38" y2="-3827.01" stroke="#DAE2F4"/>
<line x1="1558.99" y1="-2585.95" x2="2562.38" y2="-3589.33" stroke="#DAE2F4"/>
<line x1="1247.65" y1="-2926.97" x2="2251.03" y2="-3930.35" stroke="#DAE2F4"/>
<line x1="1898.64" y1="-2213.92" x2="2902.03" y2="-3217.31" stroke="#DAE2F4"/>
<line x1="1587.3" y1="-2554.95" x2="2590.68" y2="-3558.33" stroke="#DAE2F4"/>
<line x1="1606.17" y1="-2534.28" x2="2609.55" y2="-3537.66" stroke="#DAE2F4"/>
<line x1="1615.6" y1="-2523.94" x2="2618.99" y2="-3527.33" stroke="#DAE2F4"/>
<line x1="1596.73" y1="-2544.61" x2="2600.12" y2="-3548" stroke="#DAE2F4"/>
<line x1="1625.04" y1="-2513.61" x2="2628.42" y2="-3516.99" stroke="#DAE2F4"/>
<line x1="1634.47" y1="-2503.28" x2="2637.86" y2="-3506.66" stroke="#DAE2F4"/>
<line x1="1643.91" y1="-2492.94" x2="2647.29" y2="-3496.33" stroke="#DAE2F4"/>
<line x1="1653.34" y1="-2482.61" x2="2656.72" y2="-3485.99" stroke="#DAE2F4"/>
<line x1="1691.08" y1="-2441.27" x2="2694.46" y2="-3444.66" stroke="#DAE2F4"/>
<line x1="1700.51" y1="-2430.94" x2="2703.9" y2="-3434.32" stroke="#DAE2F4"/>
<line x1="1709.95" y1="-2420.6" x2="2713.33" y2="-3423.99" stroke="#DAE2F4"/>
<line x1="1719.38" y1="-2410.27" x2="2722.77" y2="-3413.65" stroke="#DAE2F4"/>
<line x1="1738.25" y1="-2389.6" x2="2741.64" y2="-3392.99" stroke="#DAE2F4"/>
<line x1="1728.82" y1="-2399.94" x2="2732.2" y2="-3403.32" stroke="#DAE2F4"/>
<line x1="1662.78" y1="-2472.27" x2="2666.16" y2="-3475.66" stroke="#DAE2F4"/>
<line x1="1747.69" y1="-2379.27" x2="2751.07" y2="-3382.65" stroke="#DAE2F4"/>
<line x1="1757.12" y1="-2368.93" x2="2760.51" y2="-3372.32" stroke="#DAE2F4"/>
<line x1="1766.56" y1="-2358.6" x2="2769.94" y2="-3361.98" stroke="#DAE2F4"/>
<line x1="1775.99" y1="-2348.27" x2="2779.38" y2="-3351.65" stroke="#DAE2F4"/>
<line x1="1681.64" y1="-2451.61" x2="2685.03" y2="-3454.99" stroke="#DAE2F4"/>
<line x1="1785.43" y1="-2337.93" x2="2788.81" y2="-3341.32" stroke="#DAE2F4"/>
<line x1="1794.86" y1="-2327.6" x2="2798.25" y2="-3330.98" stroke="#DAE2F4"/>
<line x1="1804.3" y1="-2317.26" x2="2807.68" y2="-3320.65" stroke="#DAE2F4"/>
<line x1="1813.73" y1="-2306.93" x2="2817.12" y2="-3310.31" stroke="#DAE2F4"/>
<line x1="1823.17" y1="-2296.6" x2="2826.55" y2="-3299.98" stroke="#DAE2F4"/>
<line x1="1832.6" y1="-2286.26" x2="2835.99" y2="-3289.65" stroke="#DAE2F4"/>
<line x1="1842.04" y1="-2275.93" x2="2845.42" y2="-3279.31" stroke="#DAE2F4"/>
<line x1="1851.47" y1="-2265.59" x2="2854.85" y2="-3268.98" stroke="#DAE2F4"/>
<line x1="1860.9" y1="-2255.26" x2="2864.29" y2="-3258.64" stroke="#DAE2F4"/>
<line x1="1870.34" y1="-2244.93" x2="2873.72" y2="-3248.31" stroke="#DAE2F4"/>
<line x1="1879.77" y1="-2234.59" x2="2883.16" y2="-3237.98" stroke="#DAE2F4"/>
<line x1="1672.21" y1="-2461.94" x2="2675.59" y2="-3465.32" stroke="#DAE2F4"/>
<line x1="1889.21" y1="-2224.26" x2="2892.59" y2="-3227.64" stroke="#DAE2F4"/>
<line x1="1577.86" y1="-2565.28" x2="2581.25" y2="-3568.66" stroke="#DAE2F4"/>
</g>
</pattern><pattern id="pattern3_94_680" patternUnits="userSpaceOnUse" viewBox="1746 -3403 649 649" width="101.40625000000001%" height="360.1790561302065%" patternContentUnits="objectBoundingBox">
<g clip-path="url(#clip3_94_680)">
<rect width="649" height="649" transform="translate(1746 -3403)" fill="#C6D7FD" fill-opacity="0.1"/>
<line x1="1568.43" y1="-2575.61" x2="2571.81" y2="-3579" stroke="#DAE2F4"/>
<line x1="1257.08" y1="-2916.64" x2="2260.47" y2="-3920.02" stroke="#DAE2F4"/>
<line x1="1275.95" y1="-2895.97" x2="2279.34" y2="-3899.35" stroke="#DAE2F4"/>
<line x1="1285.39" y1="-2885.63" x2="2288.77" y2="-3889.02" stroke="#DAE2F4"/>
<line x1="1266.52" y1="-2906.3" x2="2269.9" y2="-3909.69" stroke="#DAE2F4"/>
<line x1="1294.82" y1="-2875.3" x2="2298.2" y2="-3878.68" stroke="#DAE2F4"/>
<line x1="1304.25" y1="-2864.97" x2="2307.64" y2="-3868.35" stroke="#DAE2F4"/>
<line x1="1313.69" y1="-2854.63" x2="2317.07" y2="-3858.02" stroke="#DAE2F4"/>
<line x1="1323.12" y1="-2844.3" x2="2326.51" y2="-3847.68" stroke="#DAE2F4"/>
<line x1="1360.86" y1="-2802.96" x2="2364.25" y2="-3806.35" stroke="#DAE2F4"/>
<line x1="1370.3" y1="-2792.63" x2="2373.68" y2="-3796.01" stroke="#DAE2F4"/>
<line x1="1379.73" y1="-2782.29" x2="2383.12" y2="-3785.68" stroke="#DAE2F4"/>
<line x1="1389.17" y1="-2771.96" x2="2392.55" y2="-3775.34" stroke="#DAE2F4"/>
<line x1="1408.04" y1="-2751.29" x2="2411.42" y2="-3754.68" stroke="#DAE2F4"/>
<line x1="1398.6" y1="-2761.63" x2="2401.99" y2="-3765.01" stroke="#DAE2F4"/>
<line x1="1332.56" y1="-2833.96" x2="2335.94" y2="-3837.35" stroke="#DAE2F4"/>
<line x1="1417.47" y1="-2740.96" x2="2420.86" y2="-3744.34" stroke="#DAE2F4"/>
<line x1="1426.91" y1="-2730.62" x2="2430.29" y2="-3734.01" stroke="#DAE2F4"/>
<line x1="1436.34" y1="-2720.29" x2="2439.73" y2="-3723.67" stroke="#DAE2F4"/>
<line x1="1445.78" y1="-2709.96" x2="2449.16" y2="-3713.34" stroke="#DAE2F4"/>
<line x1="1351.43" y1="-2813.3" x2="2354.81" y2="-3816.68" stroke="#DAE2F4"/>
<line x1="1455.21" y1="-2699.62" x2="2458.6" y2="-3703.01" stroke="#DAE2F4"/>
<line x1="1464.65" y1="-2689.29" x2="2468.03" y2="-3692.67" stroke="#DAE2F4"/>
<line x1="1474.08" y1="-2678.95" x2="2477.47" y2="-3682.34" stroke="#DAE2F4"/>
<line x1="1483.51" y1="-2668.62" x2="2486.9" y2="-3672" stroke="#DAE2F4"/>
<line x1="1492.95" y1="-2658.29" x2="2496.33" y2="-3661.67" stroke="#DAE2F4"/>
<line x1="1502.38" y1="-2647.95" x2="2505.77" y2="-3651.34" stroke="#DAE2F4"/>
<line x1="1511.82" y1="-2637.62" x2="2515.2" y2="-3641" stroke="#DAE2F4"/>
<line x1="1521.25" y1="-2627.28" x2="2524.64" y2="-3630.67" stroke="#DAE2F4"/>
<line x1="1530.69" y1="-2616.95" x2="2534.07" y2="-3620.33" stroke="#DAE2F4"/>
<line x1="1540.12" y1="-2606.62" x2="2543.51" y2="-3610" stroke="#DAE2F4"/>
<line x1="1549.56" y1="-2596.28" x2="2552.94" y2="-3599.67" stroke="#DAE2F4"/>
<line x1="1341.99" y1="-2823.63" x2="2345.38" y2="-3827.01" stroke="#DAE2F4"/>
<line x1="1558.99" y1="-2585.95" x2="2562.38" y2="-3589.33" stroke="#DAE2F4"/>
<line x1="1247.65" y1="-2926.97" x2="2251.03" y2="-3930.35" stroke="#DAE2F4"/>
<line x1="1898.64" y1="-2213.92" x2="2902.03" y2="-3217.31" stroke="#DAE2F4"/>
<line x1="1587.3" y1="-2554.95" x2="2590.68" y2="-3558.33" stroke="#DAE2F4"/>
<line x1="1606.17" y1="-2534.28" x2="2609.55" y2="-3537.66" stroke="#DAE2F4"/>
<line x1="1615.6" y1="-2523.94" x2="2618.99" y2="-3527.33" stroke="#DAE2F4"/>
<line x1="1596.73" y1="-2544.61" x2="2600.12" y2="-3548" stroke="#DAE2F4"/>
<line x1="1625.04" y1="-2513.61" x2="2628.42" y2="-3516.99" stroke="#DAE2F4"/>
<line x1="1634.47" y1="-2503.28" x2="2637.86" y2="-3506.66" stroke="#DAE2F4"/>
<line x1="1643.91" y1="-2492.94" x2="2647.29" y2="-3496.33" stroke="#DAE2F4"/>
<line x1="1653.34" y1="-2482.61" x2="2656.72" y2="-3485.99" stroke="#DAE2F4"/>
<line x1="1691.08" y1="-2441.27" x2="2694.46" y2="-3444.66" stroke="#DAE2F4"/>
<line x1="1700.51" y1="-2430.94" x2="2703.9" y2="-3434.32" stroke="#DAE2F4"/>
<line x1="1709.95" y1="-2420.6" x2="2713.33" y2="-3423.99" stroke="#DAE2F4"/>
<line x1="1719.38" y1="-2410.27" x2="2722.77" y2="-3413.65" stroke="#DAE2F4"/>
<line x1="1738.25" y1="-2389.6" x2="2741.64" y2="-3392.99" stroke="#DAE2F4"/>
<line x1="1728.82" y1="-2399.94" x2="2732.2" y2="-3403.32" stroke="#DAE2F4"/>
<line x1="1662.78" y1="-2472.27" x2="2666.16" y2="-3475.66" stroke="#DAE2F4"/>
<line x1="1747.69" y1="-2379.27" x2="2751.07" y2="-3382.65" stroke="#DAE2F4"/>
<line x1="1757.12" y1="-2368.93" x2="2760.51" y2="-3372.32" stroke="#DAE2F4"/>
<line x1="1766.56" y1="-2358.6" x2="2769.94" y2="-3361.98" stroke="#DAE2F4"/>
<line x1="1775.99" y1="-2348.27" x2="2779.38" y2="-3351.65" stroke="#DAE2F4"/>
<line x1="1681.64" y1="-2451.61" x2="2685.03" y2="-3454.99" stroke="#DAE2F4"/>
<line x1="1785.43" y1="-2337.93" x2="2788.81" y2="-3341.32" stroke="#DAE2F4"/>
<line x1="1794.86" y1="-2327.6" x2="2798.25" y2="-3330.98" stroke="#DAE2F4"/>
<line x1="1804.3" y1="-2317.26" x2="2807.68" y2="-3320.65" stroke="#DAE2F4"/>
<line x1="1813.73" y1="-2306.93" x2="2817.12" y2="-3310.31" stroke="#DAE2F4"/>
<line x1="1823.17" y1="-2296.6" x2="2826.55" y2="-3299.98" stroke="#DAE2F4"/>
<line x1="1832.6" y1="-2286.26" x2="2835.99" y2="-3289.65" stroke="#DAE2F4"/>
<line x1="1842.04" y1="-2275.93" x2="2845.42" y2="-3279.31" stroke="#DAE2F4"/>
<line x1="1851.47" y1="-2265.59" x2="2854.85" y2="-3268.98" stroke="#DAE2F4"/>
<line x1="1860.9" y1="-2255.26" x2="2864.29" y2="-3258.64" stroke="#DAE2F4"/>
<line x1="1870.34" y1="-2244.93" x2="2873.72" y2="-3248.31" stroke="#DAE2F4"/>
<line x1="1879.77" y1="-2234.59" x2="2883.16" y2="-3237.98" stroke="#DAE2F4"/>
<line x1="1672.21" y1="-2461.94" x2="2675.59" y2="-3465.32" stroke="#DAE2F4"/>
<line x1="1889.21" y1="-2224.26" x2="2892.59" y2="-3227.64" stroke="#DAE2F4"/>
<line x1="1577.86" y1="-2565.28" x2="2581.25" y2="-3568.66" stroke="#DAE2F4"/>
</g>
</pattern><pattern id="pattern4_94_680" patternUnits="userSpaceOnUse" viewBox="1746 -3403 649 649" width="101.40625000000001%" height="360.1790561302065%" patternContentUnits="objectBoundingBox">
<g clip-path="url(#clip4_94_680)">
<rect width="649" height="649" transform="translate(1746 -3403)" fill="#C6D7FD" fill-opacity="0.1"/>
<line x1="1568.43" y1="-2575.61" x2="2571.81" y2="-3579" stroke="#DAE2F4"/>
<line x1="1257.08" y1="-2916.64" x2="2260.47" y2="-3920.02" stroke="#DAE2F4"/>
<line x1="1275.95" y1="-2895.97" x2="2279.34" y2="-3899.35" stroke="#DAE2F4"/>
<line x1="1285.39" y1="-2885.63" x2="2288.77" y2="-3889.02" stroke="#DAE2F4"/>
<line x1="1266.52" y1="-2906.3" x2="2269.9" y2="-3909.69" stroke="#DAE2F4"/>
<line x1="1294.82" y1="-2875.3" x2="2298.2" y2="-3878.68" stroke="#DAE2F4"/>
<line x1="1304.25" y1="-2864.97" x2="2307.64" y2="-3868.35" stroke="#DAE2F4"/>
<line x1="1313.69" y1="-2854.63" x2="2317.07" y2="-3858.02" stroke="#DAE2F4"/>
<line x1="1323.12" y1="-2844.3" x2="2326.51" y2="-3847.68" stroke="#DAE2F4"/>
<line x1="1360.86" y1="-2802.96" x2="2364.25" y2="-3806.35" stroke="#DAE2F4"/>
<line x1="1370.3" y1="-2792.63" x2="2373.68" y2="-3796.01" stroke="#DAE2F4"/>
<line x1="1379.73" y1="-2782.29" x2="2383.12" y2="-3785.68" stroke="#DAE2F4"/>
<line x1="1389.17" y1="-2771.96" x2="2392.55" y2="-3775.34" stroke="#DAE2F4"/>
<line x1="1408.04" y1="-2751.29" x2="2411.42" y2="-3754.68" stroke="#DAE2F4"/>
<line x1="1398.6" y1="-2761.63" x2="2401.99" y2="-3765.01" stroke="#DAE2F4"/>
<line x1="1332.56" y1="-2833.96" x2="2335.94" y2="-3837.35" stroke="#DAE2F4"/>
<line x1="1417.47" y1="-2740.96" x2="2420.86" y2="-3744.34" stroke="#DAE2F4"/>
<line x1="1426.91" y1="-2730.62" x2="2430.29" y2="-3734.01" stroke="#DAE2F4"/>
<line x1="1436.34" y1="-2720.29" x2="2439.73" y2="-3723.67" stroke="#DAE2F4"/>
<line x1="1445.78" y1="-2709.96" x2="2449.16" y2="-3713.34" stroke="#DAE2F4"/>
<line x1="1351.43" y1="-2813.3" x2="2354.81" y2="-3816.68" stroke="#DAE2F4"/>
<line x1="1455.21" y1="-2699.62" x2="2458.6" y2="-3703.01" stroke="#DAE2F4"/>
<line x1="1464.65" y1="-2689.29" x2="2468.03" y2="-3692.67" stroke="#DAE2F4"/>
<line x1="1474.08" y1="-2678.95" x2="2477.47" y2="-3682.34" stroke="#DAE2F4"/>
<line x1="1483.51" y1="-2668.62" x2="2486.9" y2="-3672" stroke="#DAE2F4"/>
<line x1="1492.95" y1="-2658.29" x2="2496.33" y2="-3661.67" stroke="#DAE2F4"/>
<line x1="1502.38" y1="-2647.95" x2="2505.77" y2="-3651.34" stroke="#DAE2F4"/>
<line x1="1511.82" y1="-2637.62" x2="2515.2" y2="-3641" stroke="#DAE2F4"/>
<line x1="1521.25" y1="-2627.28" x2="2524.64" y2="-3630.67" stroke="#DAE2F4"/>
<line x1="1530.69" y1="-2616.95" x2="2534.07" y2="-3620.33" stroke="#DAE2F4"/>
<line x1="1540.12" y1="-2606.62" x2="2543.51" y2="-3610" stroke="#DAE2F4"/>
<line x1="1549.56" y1="-2596.28" x2="2552.94" y2="-3599.67" stroke="#DAE2F4"/>
<line x1="1341.99" y1="-2823.63" x2="2345.38" y2="-3827.01" stroke="#DAE2F4"/>
<line x1="1558.99" y1="-2585.95" x2="2562.38" y2="-3589.33" stroke="#DAE2F4"/>
<line x1="1247.65" y1="-2926.97" x2="2251.03" y2="-3930.35" stroke="#DAE2F4"/>
<line x1="1898.64" y1="-2213.92" x2="2902.03" y2="-3217.31" stroke="#DAE2F4"/>
<line x1="1587.3" y1="-2554.95" x2="2590.68" y2="-3558.33" stroke="#DAE2F4"/>
<line x1="1606.17" y1="-2534.28" x2="2609.55" y2="-3537.66" stroke="#DAE2F4"/>
<line x1="1615.6" y1="-2523.94" x2="2618.99" y2="-3527.33" stroke="#DAE2F4"/>
<line x1="1596.73" y1="-2544.61" x2="2600.12" y2="-3548" stroke="#DAE2F4"/>
<line x1="1625.04" y1="-2513.61" x2="2628.42" y2="-3516.99" stroke="#DAE2F4"/>
<line x1="1634.47" y1="-2503.28" x2="2637.86" y2="-3506.66" stroke="#DAE2F4"/>
<line x1="1643.91" y1="-2492.94" x2="2647.29" y2="-3496.33" stroke="#DAE2F4"/>
<line x1="1653.34" y1="-2482.61" x2="2656.72" y2="-3485.99" stroke="#DAE2F4"/>
<line x1="1691.08" y1="-2441.27" x2="2694.46" y2="-3444.66" stroke="#DAE2F4"/>
<line x1="1700.51" y1="-2430.94" x2="2703.9" y2="-3434.32" stroke="#DAE2F4"/>
<line x1="1709.95" y1="-2420.6" x2="2713.33" y2="-3423.99" stroke="#DAE2F4"/>
<line x1="1719.38" y1="-2410.27" x2="2722.77" y2="-3413.65" stroke="#DAE2F4"/>
<line x1="1738.25" y1="-2389.6" x2="2741.64" y2="-3392.99" stroke="#DAE2F4"/>
<line x1="1728.82" y1="-2399.94" x2="2732.2" y2="-3403.32" stroke="#DAE2F4"/>
<line x1="1662.78" y1="-2472.27" x2="2666.16" y2="-3475.66" stroke="#DAE2F4"/>
<line x1="1747.69" y1="-2379.27" x2="2751.07" y2="-3382.65" stroke="#DAE2F4"/>
<line x1="1757.12" y1="-2368.93" x2="2760.51" y2="-3372.32" stroke="#DAE2F4"/>
<line x1="1766.56" y1="-2358.6" x2="2769.94" y2="-3361.98" stroke="#DAE2F4"/>
<line x1="1775.99" y1="-2348.27" x2="2779.38" y2="-3351.65" stroke="#DAE2F4"/>
<line x1="1681.64" y1="-2451.61" x2="2685.03" y2="-3454.99" stroke="#DAE2F4"/>
<line x1="1785.43" y1="-2337.93" x2="2788.81" y2="-3341.32" stroke="#DAE2F4"/>
<line x1="1794.86" y1="-2327.6" x2="2798.25" y2="-3330.98" stroke="#DAE2F4"/>
<line x1="1804.3" y1="-2317.26" x2="2807.68" y2="-3320.65" stroke="#DAE2F4"/>
<line x1="1813.73" y1="-2306.93" x2="2817.12" y2="-3310.31" stroke="#DAE2F4"/>
<line x1="1823.17" y1="-2296.6" x2="2826.55" y2="-3299.98" stroke="#DAE2F4"/>
<line x1="1832.6" y1="-2286.26" x2="2835.99" y2="-3289.65" stroke="#DAE2F4"/>
<line x1="1842.04" y1="-2275.93" x2="2845.42" y2="-3279.31" stroke="#DAE2F4"/>
<line x1="1851.47" y1="-2265.59" x2="2854.85" y2="-3268.98" stroke="#DAE2F4"/>
<line x1="1860.9" y1="-2255.26" x2="2864.29" y2="-3258.64" stroke="#DAE2F4"/>
<line x1="1870.34" y1="-2244.93" x2="2873.72" y2="-3248.31" stroke="#DAE2F4"/>
<line x1="1879.77" y1="-2234.59" x2="2883.16" y2="-3237.98" stroke="#DAE2F4"/>
<line x1="1672.21" y1="-2461.94" x2="2675.59" y2="-3465.32" stroke="#DAE2F4"/>
<line x1="1889.21" y1="-2224.26" x2="2892.59" y2="-3227.64" stroke="#DAE2F4"/>
<line x1="1577.86" y1="-2565.28" x2="2581.25" y2="-3568.66" stroke="#DAE2F4"/>
</g>
</pattern><pattern id="pattern5_94_680" patternUnits="userSpaceOnUse" viewBox="1746 -3403 649 649" width="101.40625000000001%" height="360.1790561302065%" patternContentUnits="objectBoundingBox">
<g clip-path="url(#clip5_94_680)">
<rect width="649" height="649" transform="translate(1746 -3403)" fill="#C6D7FD" fill-opacity="0.1"/>
<line x1="1568.43" y1="-2575.61" x2="2571.81" y2="-3579" stroke="#DAE2F4"/>
<line x1="1257.08" y1="-2916.64" x2="2260.47" y2="-3920.02" stroke="#DAE2F4"/>
<line x1="1275.95" y1="-2895.97" x2="2279.34" y2="-3899.35" stroke="#DAE2F4"/>
<line x1="1285.39" y1="-2885.63" x2="2288.77" y2="-3889.02" stroke="#DAE2F4"/>
<line x1="1266.52" y1="-2906.3" x2="2269.9" y2="-3909.69" stroke="#DAE2F4"/>
<line x1="1294.82" y1="-2875.3" x2="2298.2" y2="-3878.68" stroke="#DAE2F4"/>
<line x1="1304.25" y1="-2864.97" x2="2307.64" y2="-3868.35" stroke="#DAE2F4"/>
<line x1="1313.69" y1="-2854.63" x2="2317.07" y2="-3858.02" stroke="#DAE2F4"/>
<line x1="1323.12" y1="-2844.3" x2="2326.51" y2="-3847.68" stroke="#DAE2F4"/>
<line x1="1360.86" y1="-2802.96" x2="2364.25" y2="-3806.35" stroke="#DAE2F4"/>
<line x1="1370.3" y1="-2792.63" x2="2373.68" y2="-3796.01" stroke="#DAE2F4"/>
<line x1="1379.73" y1="-2782.29" x2="2383.12" y2="-3785.68" stroke="#DAE2F4"/>
<line x1="1389.17" y1="-2771.96" x2="2392.55" y2="-3775.34" stroke="#DAE2F4"/>
<line x1="1408.04" y1="-2751.29" x2="2411.42" y2="-3754.68" stroke="#DAE2F4"/>
<line x1="1398.6" y1="-2761.63" x2="2401.99" y2="-3765.01" stroke="#DAE2F4"/>
<line x1="1332.56" y1="-2833.96" x2="2335.94" y2="-3837.35" stroke="#DAE2F4"/>
<line x1="1417.47" y1="-2740.96" x2="2420.86" y2="-3744.34" stroke="#DAE2F4"/>
<line x1="1426.91" y1="-2730.62" x2="2430.29" y2="-3734.01" stroke="#DAE2F4"/>
<line x1="1436.34" y1="-2720.29" x2="2439.73" y2="-3723.67" stroke="#DAE2F4"/>
<line x1="1445.78" y1="-2709.96" x2="2449.16" y2="-3713.34" stroke="#DAE2F4"/>
<line x1="1351.43" y1="-2813.3" x2="2354.81" y2="-3816.68" stroke="#DAE2F4"/>
<line x1="1455.21" y1="-2699.62" x2="2458.6" y2="-3703.01" stroke="#DAE2F4"/>
<line x1="1464.65" y1="-2689.29" x2="2468.03" y2="-3692.67" stroke="#DAE2F4"/>
<line x1="1474.08" y1="-2678.95" x2="2477.47" y2="-3682.34" stroke="#DAE2F4"/>
<line x1="1483.51" y1="-2668.62" x2="2486.9" y2="-3672" stroke="#DAE2F4"/>
<line x1="1492.95" y1="-2658.29" x2="2496.33" y2="-3661.67" stroke="#DAE2F4"/>
<line x1="1502.38" y1="-2647.95" x2="2505.77" y2="-3651.34" stroke="#DAE2F4"/>
<line x1="1511.82" y1="-2637.62" x2="2515.2" y2="-3641" stroke="#DAE2F4"/>
<line x1="1521.25" y1="-2627.28" x2="2524.64" y2="-3630.67" stroke="#DAE2F4"/>
<line x1="1530.69" y1="-2616.95" x2="2534.07" y2="-3620.33" stroke="#DAE2F4"/>
<line x1="1540.12" y1="-2606.62" x2="2543.51" y2="-3610" stroke="#DAE2F4"/>
<line x1="1549.56" y1="-2596.28" x2="2552.94" y2="-3599.67" stroke="#DAE2F4"/>
<line x1="1341.99" y1="-2823.63" x2="2345.38" y2="-3827.01" stroke="#DAE2F4"/>
<line x1="1558.99" y1="-2585.95" x2="2562.38" y2="-3589.33" stroke="#DAE2F4"/>
<line x1="1247.65" y1="-2926.97" x2="2251.03" y2="-3930.35" stroke="#DAE2F4"/>
<line x1="1898.64" y1="-2213.92" x2="2902.03" y2="-3217.31" stroke="#DAE2F4"/>
<line x1="1587.3" y1="-2554.95" x2="2590.68" y2="-3558.33" stroke="#DAE2F4"/>
<line x1="1606.17" y1="-2534.28" x2="2609.55" y2="-3537.66" stroke="#DAE2F4"/>
<line x1="1615.6" y1="-2523.94" x2="2618.99" y2="-3527.33" stroke="#DAE2F4"/>
<line x1="1596.73" y1="-2544.61" x2="2600.12" y2="-3548" stroke="#DAE2F4"/>
<line x1="1625.04" y1="-2513.61" x2="2628.42" y2="-3516.99" stroke="#DAE2F4"/>
<line x1="1634.47" y1="-2503.28" x2="2637.86" y2="-3506.66" stroke="#DAE2F4"/>
<line x1="1643.91" y1="-2492.94" x2="2647.29" y2="-3496.33" stroke="#DAE2F4"/>
<line x1="1653.34" y1="-2482.61" x2="2656.72" y2="-3485.99" stroke="#DAE2F4"/>
<line x1="1691.08" y1="-2441.27" x2="2694.46" y2="-3444.66" stroke="#DAE2F4"/>
<line x1="1700.51" y1="-2430.94" x2="2703.9" y2="-3434.32" stroke="#DAE2F4"/>
<line x1="1709.95" y1="-2420.6" x2="2713.33" y2="-3423.99" stroke="#DAE2F4"/>
<line x1="1719.38" y1="-2410.27" x2="2722.77" y2="-3413.65" stroke="#DAE2F4"/>
<line x1="1738.25" y1="-2389.6" x2="2741.64" y2="-3392.99" stroke="#DAE2F4"/>
<line x1="1728.82" y1="-2399.94" x2="2732.2" y2="-3403.32" stroke="#DAE2F4"/>
<line x1="1662.78" y1="-2472.27" x2="2666.16" y2="-3475.66" stroke="#DAE2F4"/>
<line x1="1747.69" y1="-2379.27" x2="2751.07" y2="-3382.65" stroke="#DAE2F4"/>
<line x1="1757.12" y1="-2368.93" x2="2760.51" y2="-3372.32" stroke="#DAE2F4"/>
<line x1="1766.56" y1="-2358.6" x2="2769.94" y2="-3361.98" stroke="#DAE2F4"/>
<line x1="1775.99" y1="-2348.27" x2="2779.38" y2="-3351.65" stroke="#DAE2F4"/>
<line x1="1681.64" y1="-2451.61" x2="2685.03" y2="-3454.99" stroke="#DAE2F4"/>
<line x1="1785.43" y1="-2337.93" x2="2788.81" y2="-3341.32" stroke="#DAE2F4"/>
<line x1="1794.86" y1="-2327.6" x2="2798.25" y2="-3330.98" stroke="#DAE2F4"/>
<line x1="1804.3" y1="-2317.26" x2="2807.68" y2="-3320.65" stroke="#DAE2F4"/>
<line x1="1813.73" y1="-2306.93" x2="2817.12" y2="-3310.31" stroke="#DAE2F4"/>
<line x1="1823.17" y1="-2296.6" x2="2826.55" y2="-3299.98" stroke="#DAE2F4"/>
<line x1="1832.6" y1="-2286.26" x2="2835.99" y2="-3289.65" stroke="#DAE2F4"/>
<line x1="1842.04" y1="-2275.93" x2="2845.42" y2="-3279.31" stroke="#DAE2F4"/>
<line x1="1851.47" y1="-2265.59" x2="2854.85" y2="-3268.98" stroke="#DAE2F4"/>
<line x1="1860.9" y1="-2255.26" x2="2864.29" y2="-3258.64" stroke="#DAE2F4"/>
<line x1="1870.34" y1="-2244.93" x2="2873.72" y2="-3248.31" stroke="#DAE2F4"/>
<line x1="1879.77" y1="-2234.59" x2="2883.16" y2="-3237.98" stroke="#DAE2F4"/>
<line x1="1672.21" y1="-2461.94" x2="2675.59" y2="-3465.32" stroke="#DAE2F4"/>
<line x1="1889.21" y1="-2224.26" x2="2892.59" y2="-3227.64" stroke="#DAE2F4"/>
<line x1="1577.86" y1="-2565.28" x2="2581.25" y2="-3568.66" stroke="#DAE2F4"/>
</g>
</pattern><clipPath id="clip0_94_680">
<rect width="649" height="649" fill="white" transform="translate(1746 -3403)"/>
</clipPath>
<clipPath id="clip1_94_680">
<rect width="649" height="649" fill="white" transform="translate(1746 -3403)"/>
</clipPath>
<clipPath id="clip2_94_680">
<rect width="649" height="649" fill="white" transform="translate(1746 -3403)"/>
</clipPath>
<clipPath id="clip3_94_680">
<rect width="649" height="649" fill="white" transform="translate(1746 -3403)"/>
</clipPath>
<clipPath id="clip4_94_680">
<rect width="649" height="649" fill="white" transform="translate(1746 -3403)"/>
</clipPath>
<clipPath id="clip5_94_680">
<rect width="649" height="649" fill="white" transform="translate(1746 -3403)"/>
</clipPath>
</defs>
</svg>
