<svg width="738" height="219" viewBox="0 0 738 219" fill="none" xmlns="http://www.w3.org/2000/svg">
<path d="M727.305 67.791C729.993 67.791 732.337 68.791 734.313 70.7646H734.312C736.296 72.6498 737.292 74.993 737.292 77.7627V139.616H651.622V146.75C651.622 149.254 652.512 151.389 654.308 153.182C656.107 154.978 658.2 155.863 660.609 155.863H717.676C720.169 155.863 722.303 154.893 724.103 152.917C725.883 150.961 726.805 148.221 726.805 144.63V144.13H737.292V194.25C737.292 197.023 736.294 199.412 734.313 201.39L734.304 201.398C732.325 203.275 729.984 204.222 727.305 204.222H651.122C648.353 204.222 645.964 203.279 643.981 201.398L643.972 201.39L643.963 201.38C642.08 199.401 641.135 197.015 641.135 194.25V77.7627C641.135 74.9973 642.08 72.6533 643.972 70.7646L644.349 70.4053C646.254 68.6666 648.519 67.791 651.122 67.791H727.305ZM660.609 116.291C658.2 116.291 656.107 117.176 654.308 118.972L654.299 118.981L654.298 118.98C652.511 120.675 651.622 122.759 651.622 125.263V129.145H726.805V125.263C726.805 122.759 725.916 120.675 724.129 118.98L724.119 118.972C722.324 117.18 720.185 116.291 717.676 116.291H660.609Z" fill="#4D5879" stroke="#2C3656"/>
<path d="M542.729 67.791V73.3906C543.214 72.4358 543.872 71.5591 544.708 70.7646L545.083 70.4062C546.979 68.67 549.197 67.7911 551.717 67.791H617.987C620.675 67.791 623.019 68.791 624.996 70.7646H624.995C626.978 72.6498 627.975 74.993 627.975 77.7627V130.145H617.487V127.383C617.487 123.791 616.565 121.104 614.793 119.246L614.785 119.237C612.985 117.261 610.851 116.291 608.358 116.291H551.292C548.884 116.291 546.842 117.174 545.141 118.961L545.142 118.962C543.537 120.653 542.729 122.742 542.729 125.263V204.222H531.817V67.791H542.729Z" fill="#4D5879" stroke="#2C3656"/>
<path d="M508.67 67.791C511.358 67.791 513.702 68.791 515.679 70.7646H515.678C517.661 72.6498 518.657 74.993 518.657 77.7627V194.25C518.657 197.023 517.66 199.412 515.679 201.39L515.669 201.398C513.69 203.275 511.35 204.222 508.67 204.222H432.487C429.718 204.222 427.329 203.279 425.347 201.398L425.337 201.39L425.328 201.38C423.445 199.401 422.5 197.015 422.5 194.25V77.7627C422.5 74.9973 423.445 72.6533 425.337 70.7646C427.318 68.7872 429.71 67.791 432.487 67.791H508.67ZM441.975 116.291C439.565 116.291 437.472 117.176 435.673 118.972L435.664 118.981L435.663 118.98C433.876 120.675 432.987 122.759 432.987 125.263V146.75C432.987 149.254 433.878 151.389 435.673 153.182C437.472 154.978 439.565 155.863 441.975 155.863H499.041C501.55 155.863 503.689 154.974 505.484 153.182C507.28 151.389 508.17 149.254 508.17 146.75V125.263C508.17 122.759 507.281 120.675 505.494 118.98L505.484 118.972C503.689 117.18 501.55 116.291 499.041 116.291H441.975Z" fill="#4D5879" stroke="#2C3656"/>
<path d="M395.081 0.5C399.084 0.5 402.512 1.96663 405.34 4.88086H405.341C408.268 7.70621 409.742 11.1342 409.742 15.1367V189.585C409.742 193.678 408.271 197.154 405.341 199.981C403.883 201.435 402.267 202.515 400.496 203.222H415.406V218.5H352.317C348.221 218.5 344.742 217.034 341.91 214.112V214.113C339.192 211.4 337.777 208.093 337.665 204.222H281.232C277.139 204.222 273.615 202.805 270.689 199.981L270.684 199.976C267.85 197.146 266.431 193.672 266.431 189.585V15.1367C266.431 11.1398 267.852 7.71349 270.684 4.88672C273.608 1.96684 277.134 0.500036 281.232 0.5H395.081ZM295.393 72.4668C291.562 72.4669 288.341 73.8265 285.698 76.5557L285.692 76.5615C283.051 79.1984 281.732 82.4161 281.732 86.2451V118.477C281.732 122.303 283.049 125.569 285.692 128.302L285.941 128.545C288.535 131.02 291.676 132.255 295.393 132.255H380.779C384.615 132.255 387.839 130.939 390.48 128.302C393.22 125.567 394.581 122.3 394.581 118.477V86.2451C394.581 82.4216 393.22 79.2057 390.486 76.5674L390.475 76.5557C387.832 73.8264 384.61 72.4668 380.779 72.4668H295.393Z" fill="#6C91FE" stroke="#3C5FEF"/>
<path d="M243.283 67.791C245.971 67.791 248.315 68.791 250.292 70.7646H250.291C252.274 72.6498 253.271 74.993 253.271 77.7627V194.25C253.271 197.023 252.273 199.412 250.292 201.39L250.282 201.398C248.304 203.275 245.963 204.222 243.283 204.222H167.101C164.332 204.222 161.942 203.279 159.96 201.398L159.95 201.39L159.941 201.38C158.058 199.401 157.113 197.015 157.113 194.25V77.7627C157.113 74.9973 158.059 72.6533 159.95 70.7646C161.931 68.7872 164.324 67.791 167.101 67.791H243.283ZM176.588 116.291C174.178 116.291 172.085 117.176 170.286 118.972L170.277 118.981L170.276 118.98C168.489 120.675 167.601 122.759 167.601 125.263V146.75C167.601 149.254 168.491 151.389 170.286 153.182C172.085 154.978 174.178 155.863 176.588 155.863H233.654C236.164 155.863 238.302 154.974 240.098 153.182C241.893 151.389 242.783 149.254 242.783 146.75V125.263C242.783 122.759 241.894 120.675 240.107 118.98L240.098 118.972C238.302 117.18 236.164 116.291 233.654 116.291H176.588Z" fill="#4D5879" stroke="#2C3656"/>
<path d="M129.15 0.5C133.153 0.5 136.582 1.96663 139.409 4.88086H139.41C142.338 7.70621 143.812 11.1342 143.812 15.1367V161.17C143.812 165.263 142.34 168.739 139.41 171.567L139.409 171.566C136.579 174.389 133.15 175.807 129.15 175.807H121.143L143.698 203.405L144.365 204.222H128.914L128.764 204.038L105.691 175.807H15.8018V204.222H0.5V0.5H129.15ZM15.8018 103.84H114.849C118.685 103.84 121.908 102.524 124.55 99.8867C127.289 97.152 128.65 93.8854 128.65 90.0615V86.2451C128.65 82.4216 127.289 79.2057 124.556 76.5674L124.544 76.5557C121.901 73.8264 118.679 72.4668 114.849 72.4668H15.8018V103.84Z" fill="#4D5879" stroke="#2C3656"/>
</svg>
