<svg width="640" height="180" viewBox="0 0 640 180" fill="none" xmlns="http://www.w3.org/2000/svg">
<path d="M553.403 2.21362H639.026V22.0476H579.613V56.7571H632.297V75.7056H579.613V113.071H640V132.905H553.403V2.21362Z" fill="#DAE2F4"/>
<path d="M449.204 132.905V2.21362H505.607C517.177 2.21362 526.12 3.83694 532.436 7.08357C538.752 10.3302 543.12 14.8755 545.541 20.7194C548.02 26.5634 549.259 33.4108 549.259 41.2618C549.259 46.6335 548.758 51.6805 547.754 56.4029C546.81 61.0662 544.95 65.1983 542.176 68.7991C539.401 72.3999 535.358 75.2924 530.045 77.4765L555.28 132.905H528.009L505.076 81.2839H475.502V132.905H449.204ZM475.502 62.5125H507.821C512.307 62.5125 515.701 61.627 518.003 59.8561C520.364 58.0262 521.958 55.606 522.785 52.5955C523.67 49.5259 524.113 46.1317 524.113 42.4128C524.113 38.8711 523.729 35.4473 522.962 32.1417C522.253 28.836 520.807 26.1502 518.623 24.0841C516.498 21.9591 513.251 20.8965 508.883 20.8965H475.502V62.5125Z" fill="#DAE2F4"/>
<path d="M389.455 135.208C377.708 135.208 368.056 133.997 360.5 131.577C352.945 129.157 347.071 125.822 342.88 121.572C338.689 117.322 335.737 112.363 334.026 106.696C332.373 101.029 331.546 94.9788 331.546 88.5445V47.637C331.546 41.0256 332.373 34.857 334.026 29.1312C335.678 23.3462 338.6 18.2697 342.792 13.9015C346.983 9.5333 352.856 6.13909 360.412 3.71887C367.968 1.23962 377.649 0 389.455 0C400.729 0 409.997 1.29865 417.258 3.89596C424.577 6.49327 430.274 10.0646 434.347 14.6098C438.479 19.0961 441.342 24.2907 442.935 30.1937C444.588 36.0967 445.415 42.3538 445.415 48.9651V87.1278C445.415 93.5621 444.588 99.6716 442.935 105.457C441.283 111.182 438.39 116.289 434.258 120.775C430.185 125.261 424.518 128.803 417.258 131.4C409.997 133.938 400.729 135.208 389.455 135.208ZM389.455 114.577C396.066 114.577 401.556 113.898 405.924 112.54C410.292 111.182 413.568 108.821 415.752 105.457C417.936 102.092 419.028 97.4285 419.028 91.4665V44.0952C419.028 38.2512 417.936 33.6174 415.752 30.1937C413.568 26.77 410.262 24.3202 405.835 22.8445C401.467 21.3687 396.007 20.6309 389.455 20.6309C382.961 20.6309 377.353 21.3392 372.631 22.7559C367.909 24.1727 364.278 26.5929 361.74 30.0166C359.202 33.4403 357.933 38.1332 357.933 44.0952V91.4665C357.933 97.4285 359.172 102.092 361.652 105.457C364.19 108.821 367.82 111.182 372.543 112.54C377.265 113.898 382.902 114.577 389.455 114.577Z" fill="#DAE2F4"/>
<path d="M291.807 180.188L263.296 134.765C250.782 133.702 241.13 131.016 234.342 126.707C227.613 122.398 222.949 116.938 220.352 110.327C217.814 103.656 216.544 96.3955 216.544 88.5445V47.637C216.544 41.0256 217.371 34.857 219.024 29.1312C220.677 23.3462 223.598 18.2697 227.79 13.9015C231.981 9.5333 237.854 6.13909 245.41 3.71887C252.966 1.23962 262.647 0 274.453 0C285.727 0 294.995 1.29865 302.256 3.89596C309.575 6.49327 315.272 10.0646 319.345 14.6098C323.477 19.0961 326.34 24.2907 327.933 30.1937C329.586 36.0967 330.413 42.3538 330.413 48.9651V87.1278C330.413 94.8017 329.173 102.003 326.694 108.733C324.274 115.462 319.905 121.129 313.589 125.733C307.332 130.338 298.419 133.289 286.849 134.588L309.251 169.917L291.807 180.188ZM274.453 114.577C281.064 114.577 286.554 113.898 290.922 112.54C295.29 111.182 298.566 108.821 300.75 105.457C302.934 102.092 304.026 97.4285 304.026 91.4665V44.0952C304.026 38.2512 302.934 33.6174 300.75 30.1937C298.566 26.77 295.261 24.3202 290.833 22.8445C286.465 21.3687 281.005 20.6309 274.453 20.6309C267.959 20.6309 262.351 21.3392 257.629 22.7559C252.907 24.1727 249.276 26.5929 246.738 30.0166C244.2 33.4403 242.931 38.1332 242.931 44.0952V91.4665C242.931 97.4285 244.17 102.092 246.65 105.457C249.188 108.821 252.818 111.182 257.541 112.54C262.263 113.898 267.9 114.577 274.453 114.577Z" fill="#DAE2F4"/>
<path d="M159.451 135.208C147.704 135.208 138.053 133.997 130.497 131.577C122.941 129.157 117.068 125.822 112.877 121.572C108.686 117.322 105.734 112.363 104.022 106.696C102.369 101.029 101.543 94.9788 101.543 88.5445V47.637C101.543 41.0256 102.369 34.857 104.022 29.1312C105.675 23.3462 108.597 18.2697 112.788 13.9015C116.979 9.5333 122.853 6.13909 130.408 3.71887C137.964 1.23962 147.645 0 159.451 0C170.726 0 179.993 1.29865 187.254 3.89596C194.574 6.49327 200.27 10.0646 204.343 14.6098C208.475 19.0961 211.338 24.2907 212.932 30.1937C214.585 36.0967 215.411 42.3538 215.411 48.9651V87.1278C215.411 93.5621 214.585 99.6716 212.932 105.457C211.279 111.182 208.387 116.289 204.255 120.775C200.182 125.261 194.515 128.803 187.254 131.4C179.993 133.938 170.726 135.208 159.451 135.208ZM159.451 114.577C166.062 114.577 171.552 113.898 175.92 112.54C180.289 111.182 183.565 108.821 185.749 105.457C187.933 102.092 189.025 97.4285 189.025 91.4665V44.0952C189.025 38.2512 187.933 33.6174 185.749 30.1937C183.565 26.77 180.259 24.3202 175.832 22.8445C171.464 21.3687 166.003 20.6309 159.451 20.6309C152.958 20.6309 147.35 21.3392 142.628 22.7559C137.905 24.1727 134.275 26.5929 131.737 30.0166C129.198 33.4403 127.929 38.1332 127.929 44.0952V91.4665C127.929 97.4285 129.169 102.092 131.648 105.457C134.186 108.821 137.817 111.182 142.539 112.54C147.261 113.898 152.899 114.577 159.451 114.577Z" fill="#DAE2F4"/>
<path d="M0 132.905V2.21362H56.4029C67.9727 2.21362 76.9157 3.83694 83.2319 7.08357C89.5481 10.3302 93.9163 14.8755 96.3365 20.7194C98.8157 26.5634 100.055 33.4108 100.055 41.2618C100.055 46.6335 99.5536 51.6805 98.5501 56.4029C97.6056 61.0662 95.7462 65.1983 92.9718 68.7991C90.1974 72.3999 86.1538 75.2924 80.8412 77.4765L106.076 132.905H78.8046L55.8716 81.2839H26.2977V132.905H0ZM26.2977 62.5125H58.6165C63.1028 62.5125 66.497 61.627 68.7991 59.8561C71.1603 58.0262 72.7541 55.606 73.5805 52.5955C74.466 49.5259 74.9087 46.1317 74.9087 42.4128C74.9087 38.8711 74.525 35.4473 73.7576 32.1417C73.0493 28.836 71.603 26.1502 69.4189 24.0841C67.2939 21.9591 64.0472 20.8965 59.679 20.8965H26.2977V62.5125Z" fill="#DAE2F4"/>
</svg>
