<svg width="50" height="39" viewBox="0 0 50 39" fill="none" xmlns="http://www.w3.org/2000/svg">
<path d="M47.2224 0L47.3653 0.00382558C48.833 0.078478 50 1.29539 50 2.78579C50 4.27618 48.833 5.4931 47.3653 5.56775L47.2224 5.57157H2.77786C1.24374 5.57157 0 4.32429 0 2.78579C0 1.24729 1.24374 0 2.77786 0H47.2224Z" fill="#393030"/>
<path d="M47.2224 16.7141L47.3653 16.7179C48.833 16.7926 50 18.0095 50 19.4999C50 20.9903 48.833 22.2072 47.3653 22.2819L47.2224 22.2857H2.77786C1.24374 22.2857 0 21.0384 0 19.4999C0 17.9614 1.24374 16.7141 2.77786 16.7141H47.2224Z" fill="#393030"/>
<path d="M47.2224 33.4285L47.3653 33.4323C48.833 33.5069 50 34.7239 50 36.2143C50 37.7046 48.833 38.9216 47.3653 38.9962L47.2224 39H2.77786C1.24374 39 0 37.7528 0 36.2143C0 34.6758 1.24374 33.4285 2.77786 33.4285H47.2224Z" fill="#393030"/>
</svg>
