<svg width="25" height="19" viewBox="0 0 25 19" fill="none" xmlns="http://www.w3.org/2000/svg">
<path d="M23.6112 0L23.6827 0.00186374C24.4165 0.0382329 25 0.631089 25 1.35718C25 2.08327 24.4165 2.67612 23.6827 2.71249L23.6112 2.71436H1.38893C0.621869 2.71436 0 2.1067 0 1.35718C0 0.607652 0.621869 0 1.38893 0H23.6112Z" fill="#393030"/>
<path d="M23.6112 8.14282L23.6827 8.14469C24.4165 8.18106 25 8.77391 25 9.5C25 10.2261 24.4165 10.8189 23.6827 10.8553L23.6112 10.8572H1.38893C0.621869 10.8572 0 10.2495 0 9.5C0 8.75047 0.621869 8.14282 1.38893 8.14282H23.6112Z" fill="#393030"/>
<path d="M23.6112 16.2856L23.6827 16.2875C24.4165 16.3239 25 16.9167 25 17.6428C25 18.3689 24.4165 18.9618 23.6827 18.9981L23.6112 19H1.38893C0.621869 19 0 18.3923 0 17.6428C0 16.8933 0.621869 16.2856 1.38893 16.2856H23.6112Z" fill="#393030"/>
</svg>
