<svg width="50" height="50" viewBox="0 0 50 50" fill="none" xmlns="http://www.w3.org/2000/svg">
<g clip-path="url(#clip0_81_637)">
<mask id="mask0_81_637" style="mask-type:luminance" maskUnits="userSpaceOnUse" x="2" y="2" width="46" height="46">
<path d="M29.2222 4.59383C23.5243 6.08029 19.318 11.2605 19.318 17.424C19.318 24.747 25.2545 30.6813 32.5764 30.6813C38.7389 30.6813 43.9201 26.4761 45.4055 20.7782C45.6912 22.1673 45.8347 23.5819 45.8337 25.0001C45.8337 36.5063 36.5066 45.8334 25.0003 45.8334C13.4941 45.8334 4.16699 36.5063 4.16699 25.0001C4.16699 13.4938 13.4941 4.16675 25.0003 4.16675C26.4472 4.16675 27.8587 4.31362 29.2222 4.59383Z" fill="white"/>
<path d="M17.2345 17.4239C17.2345 13.1602 18.9734 9.30518 21.7794 6.52585C12.9585 8.05285 6.25029 15.7426 6.25029 25C6.25032 35.3557 14.6447 43.75 25.0003 43.75C34.2581 43.75 41.9478 37.041 43.4743 28.2197C40.6948 31.0258 36.8394 32.7645 32.5763 32.7645C24.1041 32.7645 17.2345 25.8977 17.2345 17.4239ZM21.4013 17.4239C21.4013 23.5959 26.4047 28.5979 32.5763 28.5979C37.7675 28.5979 42.1373 25.0554 43.3894 20.2525L43.4142 20.1655C43.6876 19.2757 44.522 18.671 45.4598 18.6955C46.428 18.7208 47.2509 19.4099 47.446 20.3585C47.76 21.8857 47.9179 23.4409 47.9169 25L47.915 25.2963C47.7564 37.8165 37.5582 47.9166 25.0003 47.9166C12.3435 47.9166 2.08353 37.6569 2.0835 25C2.0835 12.3432 12.3434 2.08325 25.0003 2.08325C26.5886 2.08326 28.1405 2.24459 29.6414 2.55303L29.7296 2.57306C30.6325 2.79944 31.28 3.6011 31.3046 4.53896C31.3301 5.50706 30.6851 6.36509 29.7481 6.60958C24.9444 7.86274 21.4013 12.2321 21.4013 17.4239Z" fill="white"/>
</mask>
<g mask="url(#mask0_81_637)">
<path d="M0 0H50V50H0V0Z" fill="#D7DDEB"/>
</g>
</g>
<defs>
<clipPath id="clip0_81_637">
<rect width="50" height="50" fill="white"/>
</clipPath>
</defs>
</svg>
